<svg width="22" height="22" viewBox="0 0 22 22" fill="none" xmlns="http://www.w3.org/2000/svg">
<circle cx="11" cy="11" r="9" fill="#454C53" stroke="#454C53" stroke-width="1.5"/>
<path d="M10.5584 6.83138C10.7464 6.47743 11.2536 6.47743 11.4416 6.83138L12.4196 8.67281C12.4919 8.80888 12.6229 8.90403 12.7746 8.93072L14.8281 9.29184C15.2229 9.36125 15.3796 9.8436 15.101 10.1318L13.652 11.631C13.5449 11.7417 13.4949 11.8957 13.5164 12.0483L13.8075 14.1129C13.8635 14.5097 13.4531 14.8078 13.093 14.632L11.2194 13.7171C11.081 13.6495 10.9191 13.6495 10.7806 13.7171L8.90706 14.632C8.54692 14.8078 8.1366 14.5097 8.19256 14.1129L8.48369 12.0483C8.50521 11.8957 8.45518 11.7417 8.3481 11.631L6.89903 10.1318C6.62049 9.8436 6.77722 9.36125 7.17194 9.29184L9.22546 8.93072C9.37721 8.90403 9.50818 8.80888 9.58045 8.67281L10.5584 6.83138Z" fill="#F7F8F9"/>
</svg>
