<svg width="22" height="22" viewBox="0 0 22 22" fill="none" xmlns="http://www.w3.org/2000/svg">
<rect x="5" y="2" width="12" height="12" rx="2" fill="white"/>
<path d="M17.4166 11.6877C17.0408 11.6877 16.7291 11.376 16.7291 11.0002V5.50016C16.7291 3.456 16.7291 2.521 13.7499 2.521H8.24992C5.27075 2.521 5.27075 3.456 5.27075 5.50016V11.0002C5.27075 11.376 4.95909 11.6877 4.58325 11.6877C4.20742 11.6877 3.89575 11.376 3.89575 11.0002V5.50016C3.89575 3.456 3.89575 1.146 8.24992 1.146H13.7499C18.1041 1.146 18.1041 3.456 18.1041 5.50016V11.0002C18.1041 11.376 17.7924 11.6877 17.4166 11.6877Z" fill="white"/>
<path d="M14.6667 20.8542H7.33333C2.0625 20.8542 2.0625 18.0583 2.0625 15.5833V14.6667C2.0625 12.6225 2.0625 10.3125 6.41667 10.3125C7.5075 10.3125 7.91083 10.5783 8.47917 11C8.50667 11.0275 8.54333 11.0458 8.57083 11.0825L9.50583 12.0725C10.2942 12.9067 11.7242 12.9067 12.5125 12.0725L13.4475 11.0825C13.475 11.055 13.5025 11.0275 13.5392 11C14.1075 10.5692 14.5108 10.3125 15.6017 10.3125C19.9558 10.3125 19.9558 12.6225 19.9558 14.6667V15.5833C19.9375 19.085 18.1683 20.8542 14.6667 20.8542Z" fill="#FF5F24"/>
<path d="M8.16094 11.3865C8.17234 11.3965 8.18228 11.4045 8.18976 11.4105L8.2015 11.4196L8.20733 11.4258L9.14233 12.4158L9.14244 12.4159C10.1281 13.4589 11.8903 13.4589 12.8759 12.4159L12.876 12.4158L13.806 11.4312C13.8302 11.407 13.8347 11.4034 13.8392 11.4L13.8412 11.3985C14.1219 11.1857 14.3165 11.0523 14.5533 10.9616C14.7869 10.8722 15.0953 10.8125 15.6017 10.8125C17.7021 10.8125 18.5821 11.3676 18.993 11.9965C19.4407 12.6817 19.4558 13.6061 19.4558 14.6667V15.5822C19.4468 17.2543 19.0208 18.4235 18.2644 19.1779C17.5081 19.9322 16.3389 20.3542 14.6667 20.3542H7.33333C4.77458 20.3542 3.66538 19.6776 3.13992 18.8734C2.57766 18.0129 2.5625 16.8593 2.5625 15.5833V14.6667C2.5625 13.6061 2.57766 12.6817 3.02535 11.9965C3.43623 11.3676 4.31628 10.8125 6.41667 10.8125C6.92104 10.8125 7.22935 10.8739 7.46355 10.9645C7.69665 11.0546 7.88814 11.1846 8.16094 11.3865ZM8.21609 11.431C8.21747 11.4321 8.21718 11.4319 8.2156 11.4306L8.21609 11.431ZM14.0932 11.6622L14.0578 11.6885L14.0277 11.7205L13.1395 12.6636C13.1394 12.6638 13.1392 12.6639 13.1391 12.6641C12.5726 13.2618 11.8144 13.5892 11 13.5892C10.1856 13.5892 9.42743 13.2618 8.86093 12.6641C8.86078 12.6639 8.86063 12.6638 8.86048 12.6636L7.97233 11.7205L7.94215 11.6885L7.90684 11.6622C7.71588 11.5201 7.52486 11.3788 7.27518 11.2927C7.02666 11.207 6.75766 11.1875 6.41667 11.1875C4.93045 11.1875 3.94554 11.4067 3.41203 12.1077C3.14989 12.4521 3.03958 12.8604 2.98786 13.2772C2.93748 13.6832 2.93749 14.1509 2.9375 14.6437L2.9375 14.6667V15.5833L2.9375 15.6057C2.93749 16.2162 2.93748 16.7999 3.0023 17.3142C3.06849 17.8394 3.20736 18.3434 3.52214 18.77C4.16525 19.6416 5.37268 19.9792 7.33333 19.9792H14.6667C16.0896 19.9792 17.2237 19.6779 17.9925 18.9092C18.7613 18.1404 19.0625 17.0062 19.0625 15.5833V14.6667V14.6437C19.0625 14.1509 19.0625 13.6832 19.0121 13.2772C18.9604 12.8604 18.8501 12.4521 18.588 12.1077C18.0545 11.4067 17.0696 11.1875 15.5833 11.1875C15.2423 11.1875 14.9733 11.207 14.7248 11.2927C14.4751 11.3788 14.2841 11.5201 14.0932 11.6622Z" fill="#FF5F24" stroke="white"/>
<path d="M12.7232 9.14844H9.67065C9.29482 9.14844 8.98315 8.83677 8.98315 8.46094C8.98315 8.0851 9.29482 7.77344 9.67065 7.77344H12.7232C13.099 7.77344 13.4107 8.0851 13.4107 8.46094C13.4107 8.83677 13.1082 9.14844 12.7232 9.14844Z" fill="#FF5F24"/>
<path d="M13.493 6.39844H8.90967C8.53383 6.39844 8.22217 6.08677 8.22217 5.71094C8.22217 5.3351 8.53383 5.02344 8.90967 5.02344H13.493C13.8688 5.02344 14.1805 5.3351 14.1805 5.71094C14.1805 6.08677 13.878 6.39844 13.493 6.39844Z" fill="#FF5F24"/>
</svg>
