<svg width="15" height="15" viewBox="0 0 15 15" fill="none" xmlns="http://www.w3.org/2000/svg">
<rect x="3.86377" y="2.04541" width="7.27273" height="7.27273" rx="2" fill="#72787F"/>
<path d="M11.2634 7.50008C11.0429 7.50008 10.8601 7.32762 10.8601 7.11965V4.07617C10.8601 2.94501 10.8601 2.42762 9.11282 2.42762H5.88702C4.1397 2.42762 4.1397 2.94501 4.1397 4.07617V7.11965C4.1397 7.32762 3.95691 7.50008 3.73648 7.50008C3.51605 7.50008 3.33325 7.32762 3.33325 7.11965V4.07617C3.33325 2.94501 3.33325 1.66675 5.88702 1.66675H9.11282C11.6666 1.66675 11.6666 2.94501 11.6666 4.07617V7.11965C11.6666 7.32762 11.4838 7.50008 11.2634 7.50008Z" fill="#72787F"/>
<path d="M9.72214 13.4721H5.2777C2.08325 13.4721 2.08325 11.7777 2.08325 10.2777V9.72214C2.08325 8.48325 2.08325 7.08325 4.72214 7.08325C5.38325 7.08325 5.6277 7.24436 5.97214 7.49992C5.98881 7.51659 6.01103 7.5277 6.0277 7.54992L6.59436 8.14992C7.07214 8.65547 7.93881 8.65547 8.41658 8.14992L8.98325 7.54992C8.99992 7.53325 9.01659 7.51659 9.03881 7.49992C9.38325 7.23881 9.6277 7.08325 10.2888 7.08325C12.9277 7.08325 12.9277 8.48325 12.9277 9.72214V10.2777C12.9166 12.3999 11.8444 13.4721 9.72214 13.4721Z" fill="white"/>
<mask id="path-4-inside-1_1472_13881" fill="white">
<path d="M9.72214 13.4721H5.2777C2.08325 13.4721 2.08325 11.7777 2.08325 10.2777V9.72214C2.08325 8.48325 2.08325 7.08325 4.72214 7.08325C5.38325 7.08325 5.6277 7.24436 5.97214 7.49992C5.98881 7.51659 6.01103 7.5277 6.0277 7.54992L6.59436 8.14992C7.07214 8.65547 7.93881 8.65547 8.41658 8.14992L8.98325 7.54992C8.99992 7.53325 9.01659 7.51659 9.03881 7.49992C9.38325 7.23881 9.6277 7.08325 10.2888 7.08325C12.9277 7.08325 12.9277 8.48325 12.9277 9.72214V10.2777C12.9166 12.3999 11.8444 13.4721 9.72214 13.4721ZM4.72214 7.91659C2.91659 7.91659 2.91659 8.48325 2.91659 9.72214V10.2777C2.91659 11.7999 2.91659 12.6388 5.2777 12.6388H9.72214C11.3777 12.6388 12.0833 11.9333 12.0833 10.2777V9.72214C12.0833 8.48325 12.0833 7.91659 10.2777 7.91659C9.8777 7.91659 9.79436 7.96659 9.55547 8.14436L9.01659 8.71658C8.61659 9.13881 8.0777 9.37214 7.49992 9.37214C6.92214 9.37214 6.38325 9.13881 5.98325 8.71658L5.44436 8.14436C5.20547 7.96659 5.12214 7.91659 4.72214 7.91659Z"/>
</mask>
<path d="M9.72214 13.4721H5.2777C2.08325 13.4721 2.08325 11.7777 2.08325 10.2777V9.72214C2.08325 8.48325 2.08325 7.08325 4.72214 7.08325C5.38325 7.08325 5.6277 7.24436 5.97214 7.49992C5.98881 7.51659 6.01103 7.5277 6.0277 7.54992L6.59436 8.14992C7.07214 8.65547 7.93881 8.65547 8.41658 8.14992L8.98325 7.54992C8.99992 7.53325 9.01659 7.51659 9.03881 7.49992C9.38325 7.23881 9.6277 7.08325 10.2888 7.08325C12.9277 7.08325 12.9277 8.48325 12.9277 9.72214V10.2777C12.9166 12.3999 11.8444 13.4721 9.72214 13.4721ZM4.72214 7.91659C2.91659 7.91659 2.91659 8.48325 2.91659 9.72214V10.2777C2.91659 11.7999 2.91659 12.6388 5.2777 12.6388H9.72214C11.3777 12.6388 12.0833 11.9333 12.0833 10.2777V9.72214C12.0833 8.48325 12.0833 7.91659 10.2777 7.91659C9.8777 7.91659 9.79436 7.96659 9.55547 8.14436L9.01659 8.71658C8.61659 9.13881 8.0777 9.37214 7.49992 9.37214C6.92214 9.37214 6.38325 9.13881 5.98325 8.71658L5.44436 8.14436C5.20547 7.96659 5.12214 7.91659 4.72214 7.91659Z" fill="white"/>
<path d="M5.97214 7.49992L6.67925 6.79281L6.62715 6.74072L6.56799 6.69682L5.97214 7.49992ZM6.0277 7.54992L5.2277 8.14992L5.26173 8.1953L5.30068 8.23654L6.0277 7.54992ZM6.59436 8.14992L5.86735 8.83654L5.86757 8.83678L6.59436 8.14992ZM8.41658 8.14992L9.14338 8.83678L9.1436 8.83654L8.41658 8.14992ZM8.98325 7.54992L8.27615 6.84281L8.26605 6.85291L8.25624 6.86329L8.98325 7.54992ZM9.03881 7.49992L9.63882 8.29993L9.64291 8.29682L9.03881 7.49992ZM12.9277 10.2777L13.9277 10.2829V10.2777H12.9277ZM9.55547 8.14436L8.95846 7.34213L8.88784 7.39469L8.82748 7.45878L9.55547 8.14436ZM9.01659 8.71658L9.74254 9.40433L9.74458 9.40217L9.01659 8.71658ZM5.98325 8.71658L5.25526 9.40217L5.2573 9.40433L5.98325 8.71658ZM5.44436 8.14436L6.17236 7.45878L6.112 7.39469L6.04137 7.34213L5.44436 8.14436ZM9.72214 12.4721H5.2777V14.4721H9.72214V12.4721ZM5.2777 12.4721C3.8338 12.4721 3.45221 12.0932 3.31969 11.8904C3.11357 11.575 3.08325 11.1047 3.08325 10.2777H1.08325C1.08325 10.9507 1.05293 12.0776 1.64542 12.9844C2.31152 14.0038 3.52715 14.4721 5.2777 14.4721V12.4721ZM3.08325 10.2777V9.72214H1.08325V10.2777H3.08325ZM3.08325 9.72214C3.08325 9.02576 3.11357 8.6943 3.25027 8.48508C3.31336 8.38852 3.55608 8.08325 4.72214 8.08325V6.08325C3.24931 6.08325 2.17259 6.47798 1.57596 7.39114C1.05294 8.19165 1.08325 9.17963 1.08325 9.72214H3.08325ZM4.72214 8.08325C4.9706 8.08325 5.06655 8.11349 5.10529 8.12847C5.1533 8.14704 5.20501 8.17594 5.37629 8.30302L6.56799 6.69682C6.39482 6.56834 6.15209 6.38891 5.8265 6.26303C5.49163 6.13357 5.13479 6.08325 4.72214 6.08325V8.08325ZM5.26503 8.20703C5.30709 8.24908 5.3443 8.27936 5.36258 8.29392C5.37187 8.30131 5.37994 8.30752 5.38242 8.30943C5.3867 8.31272 5.38441 8.31097 5.3821 8.30916C5.37167 8.30096 5.29895 8.24492 5.2277 8.14992L6.8277 6.94992C6.73978 6.8327 6.64761 6.75998 6.61774 6.73651C6.61057 6.73088 6.60342 6.7254 6.60287 6.72498C6.60054 6.72318 6.60384 6.7257 6.60843 6.72936C6.61734 6.73645 6.64553 6.75909 6.67925 6.79281L5.26503 8.20703ZM5.30068 8.23654L5.86735 8.83654L7.32138 7.4633L6.75471 6.8633L5.30068 8.23654ZM5.86757 8.83678C6.73993 9.75985 8.27102 9.75985 9.14338 8.83678L7.68979 7.46306C7.66091 7.49363 7.59889 7.52909 7.50547 7.52909C7.41206 7.52909 7.35004 7.49363 7.32115 7.46306L5.86757 8.83678ZM9.1436 8.83654L9.71027 8.23654L8.25624 6.86329L7.68957 7.46329L9.1436 8.83654ZM9.69036 8.25703C9.70921 8.23817 9.68034 8.26877 9.63881 8.29992L8.43881 6.69992C8.35283 6.7644 8.29062 6.82833 8.27615 6.84281L9.69036 8.25703ZM9.64291 8.29682C9.80821 8.17151 9.85879 8.14434 9.90264 8.12755C9.94025 8.11315 10.0363 8.08325 10.2888 8.08325V6.08325C9.8802 6.08325 9.52348 6.13113 9.18747 6.25979C8.85771 6.38605 8.61385 6.56721 8.4347 6.70301L9.64291 8.29682ZM10.2888 8.08325C11.4549 8.08325 11.6976 8.38852 11.7607 8.48508C11.8974 8.6943 11.9277 9.02576 11.9277 9.72214H13.9277C13.9277 9.17963 13.958 8.19165 13.435 7.39114C12.8384 6.47798 11.7616 6.08325 10.2888 6.08325V8.08325ZM11.9277 9.72214V10.2777H13.9277V9.72214H11.9277ZM11.9277 10.2725C11.923 11.1777 11.6937 11.6802 11.4104 11.9627C11.1276 12.2448 10.626 12.4721 9.72214 12.4721V14.4721C10.9405 14.4721 12.0362 14.1634 12.8228 13.3788C13.6089 12.5947 13.9213 11.4999 13.9277 10.2829L11.9277 10.2725ZM4.72214 6.91659C3.8261 6.91659 2.89447 7.02924 2.34655 7.74913C2.08182 8.09694 1.99097 8.4835 1.95241 8.79422C1.91497 9.09592 1.91659 9.43214 1.91659 9.72214H3.91659C3.91659 9.3927 3.9182 9.1935 3.93719 9.04051C3.95505 8.89654 3.97705 8.90914 3.93801 8.96043C3.88697 9.02749 3.84691 9.0163 3.95281 8.98607C4.0771 8.95059 4.30935 8.91659 4.72214 8.91659V6.91659ZM1.91659 9.72214V10.2777H3.91659V9.72214H1.91659ZM1.91659 10.2777C1.91659 10.6396 1.91497 11.046 1.96133 11.4139C2.00887 11.7911 2.11689 12.2296 2.40705 12.6228C3.01445 13.446 4.07167 13.6388 5.2777 13.6388V11.6388C4.73395 11.6388 4.40372 11.5889 4.20747 11.5284C4.1146 11.4997 4.0656 11.4728 4.04297 11.4579C4.02297 11.4447 4.01794 11.4375 4.01639 11.4354C4.01142 11.4286 3.97187 11.372 3.94563 11.1638C3.91821 10.9462 3.91659 10.677 3.91659 10.2777H1.91659ZM5.2777 13.6388H9.72214V11.6388H5.2777V13.6388ZM9.72214 13.6388C10.6641 13.6388 11.5748 13.4421 12.2306 12.7862C12.8865 12.1303 13.0833 11.2196 13.0833 10.2777H11.0833C11.0833 10.9913 10.9272 11.2612 10.8164 11.372C10.7056 11.4828 10.4358 11.6388 9.72214 11.6388V13.6388ZM13.0833 10.2777V9.72214H11.0833V10.2777H13.0833ZM13.0833 9.72214C13.0833 9.43214 13.0849 9.09592 13.0474 8.79422C13.0089 8.4835 12.918 8.09694 12.6533 7.74913C12.1054 7.02924 11.1737 6.91659 10.2777 6.91659V8.91659C10.6905 8.91659 10.9227 8.95059 11.047 8.98607C11.1529 9.0163 11.1129 9.02749 11.0618 8.96043C11.0228 8.90914 11.0448 8.89654 11.0627 9.04051C11.0816 9.1935 11.0833 9.3927 11.0833 9.72214H13.0833ZM10.2777 6.91659C10.0557 6.91659 9.79563 6.9269 9.53018 7.01843C9.26241 7.11077 9.06565 7.26236 8.95846 7.34213L10.1525 8.9466C10.1812 8.92524 10.201 8.91069 10.2171 8.89927C10.2328 8.88813 10.2399 8.88359 10.2416 8.88255C10.2427 8.88188 10.2367 8.88567 10.2253 8.8913C10.2133 8.8972 10.1986 8.90352 10.1822 8.90918C10.1476 8.92111 10.1277 8.92242 10.1391 8.92117C10.1553 8.91939 10.1947 8.91659 10.2777 8.91659V6.91659ZM8.82748 7.45878L8.28859 8.031L9.74458 9.40217L10.2835 8.82995L8.82748 7.45878ZM8.29063 8.02884C8.07754 8.25377 7.80029 8.37214 7.49992 8.37214V10.3721C8.3551 10.3721 9.15563 10.0238 9.74254 9.40433L8.29063 8.02884ZM7.49992 8.37214C7.19954 8.37214 6.9223 8.25377 6.70921 8.02884L5.2573 9.40433C5.84421 10.0238 6.64474 10.3721 7.49992 10.3721V8.37214ZM6.71124 8.031L6.17236 7.45878L4.71637 8.82995L5.25526 9.40217L6.71124 8.031ZM6.04137 7.34213C5.93419 7.26236 5.73742 7.11077 5.46966 7.01843C5.2042 6.9269 4.94412 6.91659 4.72214 6.91659V8.91659C4.80511 8.91659 4.84453 8.91939 4.86069 8.92117C4.87209 8.92242 4.85227 8.92111 4.81768 8.90918C4.80125 8.90352 4.78656 8.8972 4.77458 8.8913C4.76314 8.88567 4.75715 8.88188 4.75824 8.88255C4.7599 8.88359 4.76701 8.88813 4.78272 8.89927C4.79883 8.91069 4.81866 8.92524 4.84735 8.9466L6.04137 7.34213Z" fill="#72787F" mask="url(#path-4-inside-1_1472_13881)"/>
<path d="M8.54426 6.37777H6.69425C6.46648 6.37777 6.27759 6.18888 6.27759 5.9611C6.27759 5.73332 6.46648 5.54443 6.69425 5.54443H8.54426C8.77203 5.54443 8.96092 5.73332 8.96092 5.9611C8.96092 6.18888 8.77759 6.37777 8.54426 6.37777Z" fill="white"/>
<path d="M9.01083 4.71102H6.23307C6.0053 4.71102 5.81641 4.52213 5.81641 4.29435C5.81641 4.06657 6.0053 3.87769 6.23307 3.87769H9.01083C9.23861 3.87769 9.4275 4.06657 9.4275 4.29435C9.4275 4.52213 9.24417 4.71102 9.01083 4.71102Z" fill="white"/>
</svg>
