<svg width="18" height="18" viewBox="0 0 18 18" fill="none" xmlns="http://www.w3.org/2000/svg">
<rect x="4.63647" y="2.45459" width="8.72727" height="8.72727" rx="2" fill="#72787F"/>
<path d="M13.5161 9C13.2516 9 13.0323 8.79304 13.0323 8.54348V4.8913C13.0323 3.53391 13.0323 2.91304 10.9355 2.91304H7.06452C4.96774 2.91304 4.96774 3.53391 4.96774 4.8913V8.54348C4.96774 8.79304 4.74839 9 4.48387 9C4.21935 9 4 8.79304 4 8.54348V4.8913C4 3.53391 4 2 7.06452 2H10.9355C14 2 14 3.53391 14 4.8913V8.54348C14 8.79304 13.7806 9 13.5161 9Z" fill="#72787F"/>
<path d="M11.6667 16.1667H6.33333C2.5 16.1667 2.5 14.1333 2.5 12.3333V11.6667C2.5 10.18 2.5 8.5 5.66667 8.5C6.46 8.5 6.75333 8.69333 7.16667 9C7.18667 9.02 7.21333 9.03333 7.23333 9.06L7.91333 9.78C8.48667 10.3867 9.52667 10.3867 10.1 9.78L10.78 9.06C10.8 9.04 10.82 9.02 10.8467 9C11.26 8.68667 11.5533 8.5 12.3467 8.5C15.5133 8.5 15.5133 10.18 15.5133 11.6667V12.3333C15.5 14.88 14.2133 16.1667 11.6667 16.1667Z" fill="white"/>
<path d="M7.54298 10.1161L7.52158 10.0934L7.54983 10.1233L7.54994 10.1234C7.55023 10.1237 7.55051 10.124 7.5508 10.1243C7.54834 10.1218 7.54588 10.1192 7.54343 10.1166C7.54328 10.1164 7.54313 10.1163 7.54298 10.1161ZM9 10.7467C8.52072 10.7467 8.0704 10.5805 7.70745 10.2721C8.31291 10.7812 9.18789 10.8704 9.8878 10.5397C9.61521 10.6754 9.31382 10.7467 9 10.7467ZM12.4449 9.00057C12.4109 9.00022 12.3767 9.00003 12.3421 9C12.3436 9 12.3452 9 12.3467 9C12.3798 9 12.4126 9.00019 12.4449 9.00057ZM14.627 9.72301C14.5206 9.58321 14.393 9.46841 14.2449 9.37478C14.4606 9.50242 14.6018 9.65059 14.6989 9.79932C14.9982 10.2573 15.0133 10.8849 15.0133 11.6667V12.332C15.0069 13.5267 14.7027 14.3366 14.1869 14.851C13.9961 15.0413 13.7651 15.2024 13.4892 15.3299C13.7488 15.2081 13.9808 15.0496 14.1819 14.8486C14.7782 14.2523 15 13.3837 15 12.3333V11.6667V11.6448C15 11.2905 15 10.9431 14.9623 10.6394C14.9233 10.3249 14.8384 10.0007 14.627 9.72301ZM6.89109 9.42066C6.89116 9.42072 6.89113 9.42069 6.89101 9.4206L6.89109 9.42066ZM3.37297 9.72301C3.2774 9.84857 3.20768 9.98363 3.15637 10.123C3.1974 10.0071 3.24915 9.8992 3.31441 9.79932C3.3708 9.71301 3.44199 9.62689 3.53398 9.54487C3.47583 9.59916 3.42213 9.65842 3.37297 9.72301Z" fill="white" stroke="#72787F"/>
<path d="M10.2532 7.65332H8.0332C7.75987 7.65332 7.5332 7.42665 7.5332 7.15332C7.5332 6.87999 7.75987 6.65332 8.0332 6.65332H10.2532C10.5265 6.65332 10.7532 6.87999 10.7532 7.15332C10.7532 7.42665 10.5332 7.65332 10.2532 7.65332Z" fill="white"/>
<path d="M10.813 5.65332H7.47974C7.2064 5.65332 6.97974 5.42665 6.97974 5.15332C6.97974 4.87999 7.2064 4.65332 7.47974 4.65332H10.813C11.0864 4.65332 11.313 4.87999 11.313 5.15332C11.313 5.42665 11.093 5.65332 10.813 5.65332Z" fill="white"/>
</svg>
