<svg width="24" height="24" viewBox="0 0 24 24" fill="none" xmlns="http://www.w3.org/2000/svg">
<path d="M12 3C7.58172 3 4 6.58172 4 11V11.3274C4 13.013 4.53207 14.646 5.50638 16H5.5L5.52299 16.023C5.72211 16.2976 5.9395 16.5607 6.1744 16.8103C6.52837 17.1864 12 21.5 12 21.5C12.7985 21.0933 17.174 17.5026 17.8256 16.8103C18.063 16.5581 18.2824 16.2921 18.4833 16.0143L18.5 16H18.4936C19.4679 14.646 20 13.013 20 11.3274V11C20 6.58172 16.4183 3 12 3Z" fill="#FF5F24" stroke="#FF5F24" stroke-width="1.5" stroke-linejoin="round"/>
<path d="M15.25 11C15.25 9.20507 13.7949 7.75 12 7.75C10.2051 7.75 8.75 9.20507 8.75 11C8.75 12.7949 10.2051 14.25 12 14.25C13.7949 14.25 15.25 12.7949 15.25 11Z" fill="white" stroke="white" stroke-width="1.5"/>
</svg>
