<svg width="20" height="20" viewBox="0 0 20 20" fill="none" xmlns="http://www.w3.org/2000/svg">
<path d="M9.99992 2.5C6.31802 2.5 3.33325 5.48477 3.33325 9.16667V9.4395C3.33325 10.8442 3.77664 12.205 4.58857 13.3333H4.58325L4.60241 13.3525C4.76834 13.5813 4.9495 13.8006 5.14525 14.0086C5.44023 14.322 9.99992 17.9167 9.99992 17.9167C10.6653 17.5777 14.3116 14.5855 14.8546 14.0086C15.0524 13.7984 15.2353 13.5767 15.4027 13.3452L15.4166 13.3333H15.4113C16.2232 12.205 16.6666 10.8442 16.6666 9.4395V9.16667C16.6666 5.48477 13.6818 2.5 9.99992 2.5Z" fill="#72787F" stroke="#72787F" stroke-linejoin="round"/>
<path d="M12.7084 9.16683C12.7084 7.67106 11.4959 6.4585 10.0001 6.4585C8.50431 6.4585 7.29175 7.67106 7.29175 9.16683C7.29175 10.6626 8.50431 11.8752 10.0001 11.8752C11.4959 11.8752 12.7084 10.6626 12.7084 9.16683Z" fill="white" stroke="white"/>
</svg>
