<svg width="18" height="18" viewBox="0 0 18 18" fill="none" xmlns="http://www.w3.org/2000/svg">
<path d="M11.4375 4.5C11.4375 5.8462 10.3462 6.9375 9 6.9375C7.65383 6.9375 6.5625 5.8462 6.5625 4.5C6.5625 3.1538 7.65383 2.0625 9 2.0625C10.3462 2.0625 11.4375 3.1538 11.4375 4.5Z" fill="#72787F" stroke="#72787F"/>
<path d="M13.6875 12.75C13.6875 13.5567 13.2307 14.3401 12.3853 14.9439C11.5411 15.547 10.346 15.9375 9 15.9375C7.65398 15.9375 6.45886 15.547 5.61463 14.9439C4.76933 14.3401 4.3125 13.5567 4.3125 12.75C4.3125 11.9433 4.76933 11.1598 5.61463 10.5561C6.45886 9.95302 7.65398 9.5625 9 9.5625C10.346 9.5625 11.5411 9.95302 12.3853 10.5561C13.2307 11.1598 13.6875 11.9433 13.6875 12.75Z" fill="#72787F" stroke="#72787F"/>
</svg>
