<svg width="26" height="26" viewBox="0 0 26 26" fill="none" xmlns="http://www.w3.org/2000/svg">
<path d="M2.97925 11.9165C2.97925 6.98046 6.9807 2.979 11.9167 2.979C16.8528 2.979 20.8542 6.98046 20.8542 11.9165C20.8542 16.8525 16.8528 20.854 11.9167 20.854C6.9807 20.854 2.97925 16.8525 2.97925 11.9165Z" stroke="#454C53" stroke-width="1.75"/>
<path d="M19.6426 18.0688L19.0239 17.4501L17.7865 18.6875L18.4052 19.3062L19.6426 18.0688ZM22.1396 23.0406C22.4813 23.3823 23.0353 23.3823 23.3771 23.0406C23.7188 22.6989 23.7188 22.1449 23.3771 21.8032L22.1396 23.0406ZM18.4052 19.3062L22.1396 23.0406L23.3771 21.8032L19.6426 18.0688L18.4052 19.3062Z" fill="#454C53"/>
</svg>
