<svg width="28" height="28" viewBox="0 0 28 28" fill="none" xmlns="http://www.w3.org/2000/svg">
<path d="M7.00008 16.3332C8.28875 16.3332 9.33341 15.2885 9.33341 13.9998C9.33341 12.7112 8.28875 11.6665 7.00008 11.6665C5.71142 11.6665 4.66675 12.7112 4.66675 13.9998C4.66675 15.2885 5.71142 16.3332 7.00008 16.3332Z" stroke="white" stroke-width="2"/>
<path d="M19.8333 8.16667C21.122 8.16667 22.1667 7.122 22.1667 5.83333C22.1667 4.54467 21.122 3.5 19.8333 3.5C18.5447 3.5 17.5 4.54467 17.5 5.83333C17.5 7.122 18.5447 8.16667 19.8333 8.16667Z" stroke="white" stroke-width="2"/>
<path d="M8.89575 12.3584L17.469 7.40869" stroke="white" stroke-width="2"/>
<path d="M19.8333 19.8333C21.122 19.8333 22.1667 20.878 22.1667 22.1667C22.1667 23.4553 21.122 24.5 19.8333 24.5C18.5447 24.5 17.5 23.4553 17.5 22.1667C17.5 20.878 18.5447 19.8333 19.8333 19.8333Z" stroke="white" stroke-width="2"/>
<path d="M8.89575 15.9243L17.469 20.8741" stroke="white" stroke-width="2"/>
</svg>
