<svg width="20" height="20" viewBox="0 0 20 20" fill="none" xmlns="http://www.w3.org/2000/svg">
<rect x="2" y="4" width="15" height="12" rx="2" fill="#72787F"/>
<path d="M8.33342 4.5835H10.8334C12.4401 4.5835 13.5193 4.58615 14.3244 4.69439C15.0935 4.79779 15.4227 4.9765 15.6399 5.19369C15.8571 5.41089 16.0357 5.74005 16.1392 6.50915C16.2048 6.99752 16.2317 7.58679 16.2426 8.3335H17.4928C17.4629 6.26719 17.3097 5.09571 16.5237 4.3098C15.5475 3.3335 13.9761 3.3335 10.8334 3.3335H8.33342C5.19071 3.3335 3.61937 3.3335 2.64306 4.3098C1.66675 5.28612 1.66675 6.85746 1.66675 10.0002C1.66675 13.1428 1.66675 14.7142 2.64306 15.6905C3.61937 16.6668 5.19071 16.6668 8.33342 16.6668H10.8334C13.9761 16.6668 15.5475 16.6668 16.5237 15.6905C17.3097 14.9046 17.4629 13.7332 17.4928 11.6668H16.2426C16.2317 12.4135 16.2048 13.0028 16.1392 13.4912C16.0357 14.2602 15.8571 14.5894 15.6399 14.8067C15.4227 15.0238 15.0935 15.2025 14.3244 15.3059C13.5193 15.4142 12.4401 15.4168 10.8334 15.4168H8.33342C6.72673 15.4168 5.64746 15.4142 4.8424 15.3059C4.0733 15.2025 3.74414 15.0238 3.52694 14.8067C3.30975 14.5894 3.13104 14.2602 3.02764 13.4912C2.91941 12.6861 2.91675 11.6068 2.91675 10.0002C2.91675 8.3935 2.91941 7.31421 3.02764 6.50915C3.13104 5.74005 3.30975 5.41089 3.52694 5.19369C3.74414 4.9765 4.0733 4.79779 4.8424 4.69439C5.64746 4.58615 6.72673 4.5835 8.33342 4.5835Z" fill="#72787F"/>
<path d="M15.7954 7.5835H15.0378C13.6982 7.5835 12.5833 8.64967 12.5833 10.0002C12.5833 11.3507 13.6982 12.4168 15.0378 12.4168H15.7954C17.135 12.4168 18.2499 11.3507 18.2499 10.0002C18.2499 8.64967 17.135 7.5835 15.7954 7.5835Z" fill="#72787F" stroke="#72787F" stroke-width="1.5"/>
<path d="M15.7954 8.3335H15.0378C14.0964 8.3335 13.3333 9.07969 13.3333 10.0002C13.3333 10.9206 14.0964 11.6668 15.0378 11.6668H15.7954C16.7368 11.6668 17.4999 10.9206 17.4999 10.0002C17.4999 9.07969 16.7368 8.3335 15.7954 8.3335Z" fill="white"/>
<path d="M5.625 7.7085H10.2083" stroke="white" stroke-linecap="round"/>
</svg>
