<svg width="24" height="24" viewBox="0 0 24 24" fill="none" xmlns="http://www.w3.org/2000/svg">
<rect x="3" y="5" width="17" height="14" rx="2" fill="#FF5F24"/>
<path d="M10 5.5H13C14.928 5.5 16.2231 5.50319 17.1892 5.63307C18.1121 5.75715 18.5071 5.9716 18.7678 6.23223C19.0284 6.49287 19.2428 6.88786 19.3669 7.81078C19.4457 8.39683 19.4779 9.10395 19.491 10H20.9913C20.9554 7.52043 20.7715 6.11466 19.8284 5.17157C18.6569 4 16.7712 4 13 4H10C6.22876 4 4.34315 4 3.17157 5.17157C2 6.34315 2 8.22876 2 12C2 15.7712 2 17.6569 3.17157 18.8284C4.34315 20 6.22876 20 10 20H13C16.7712 20 18.6569 20 19.8284 18.8284C20.7715 17.8853 20.9554 16.4796 20.9913 14H19.491C19.4779 14.896 19.4457 15.6032 19.3669 16.1892C19.2428 17.1121 19.0284 17.5071 18.7678 17.7678C18.5071 18.0284 18.1121 18.2428 17.1892 18.3669C16.2231 18.4968 14.928 18.5 13 18.5H10C8.07198 18.5 6.77686 18.4968 5.81078 18.3669C4.88786 18.2428 4.49287 18.0284 4.23223 17.7678C3.9716 17.5071 3.75715 17.1121 3.63307 16.1892C3.50319 15.2231 3.5 13.928 3.5 12C3.5 10.072 3.50319 8.77686 3.63307 7.81078C3.75715 6.88786 3.9716 6.49287 4.23223 6.23223C4.49287 5.9716 4.88786 5.75715 5.81078 5.63307C6.77686 5.50319 8.07198 5.5 10 5.5Z" fill="#FF5F24"/>
<path d="M18.9545 9.25H18.0455C16.5175 9.25 15.25 10.4654 15.25 12C15.25 13.5346 16.5175 14.75 18.0455 14.75H18.9545C20.4825 14.75 21.75 13.5346 21.75 12C21.75 10.4654 20.4825 9.25 18.9545 9.25Z" fill="#FF5F24" stroke="#FF5F24" stroke-width="1.5"/>
<path d="M18.9545 10H18.0455C16.9158 10 16 10.8954 16 12C16 13.1046 16.9158 14 18.0455 14H18.9545C20.0842 14 21 13.1046 21 12C21 10.8954 20.0842 10 18.9545 10Z" fill="white"/>
<path d="M6.75 9.25H12.25" stroke="white" stroke-width="1.5" stroke-linecap="round"/>
</svg>
