<svg width="32" height="32" viewBox="0 0 32 32" fill="none" xmlns="http://www.w3.org/2000/svg">
<path fill-rule="evenodd" clip-rule="evenodd" d="M2.66699 18.2841C2.66699 10.7761 3.52102 11.3001 8.11799 7.21341C10.1293 5.66141 13.2588 2.66675 15.9614 2.66675C18.6626 2.66675 21.8547 5.64675 23.8841 7.21341C28.481 11.3001 29.3337 10.7761 29.3337 18.2841C29.3337 29.3334 26.6089 29.3334 16.0003 29.3334C5.39181 29.3334 2.66699 29.3334 2.66699 18.2841Z" fill="#FAF8F7" fill-opacity="0.5"/>
<path fill-rule="evenodd" clip-rule="evenodd" d="M2.66699 18.2841C2.66699 10.7761 3.52102 11.3001 8.11799 7.21341C10.1293 5.66141 13.2588 2.66675 15.9614 2.66675C18.6626 2.66675 21.8547 5.64675 23.8841 7.21341C28.481 11.3001 29.3337 10.7761 29.3337 18.2841C29.3337 29.3334 26.6089 29.3334 16.0003 29.3334C5.39181 29.3334 2.66699 29.3334 2.66699 18.2841Z" fill="#FF5F24" fill-opacity="0.05"/>
<path fill-rule="evenodd" clip-rule="evenodd" d="M2.66699 18.2841C2.66699 10.7761 3.52102 11.3001 8.11799 7.21341C10.1293 5.66141 13.2588 2.66675 15.9614 2.66675C18.6626 2.66675 21.8547 5.64675 23.8841 7.21341C28.481 11.3001 29.3337 10.7761 29.3337 18.2841C29.3337 29.3334 26.6089 29.3334 16.0003 29.3334C5.39181 29.3334 2.66699 29.3334 2.66699 18.2841Z" stroke="#FF5F24" stroke-width="2" stroke-linecap="round" stroke-linejoin="round"/>
<path d="M13 21.6667H19" stroke="#FF5F24" stroke-width="2" stroke-linecap="round"/>
</svg>
