<svg width="32" height="32" viewBox="0 0 32 32" fill="none" xmlns="http://www.w3.org/2000/svg">
<path d="M3.66699 14.6667C3.66699 8.59162 8.59186 3.66675 14.667 3.66675C20.7421 3.66675 25.667 8.59162 25.667 14.6667C25.667 20.7419 20.7421 25.6667 14.667 25.6667C8.59186 25.6667 3.66699 20.7419 3.66699 14.6667Z" fill="#FAF8F7" fill-opacity="0.5"/>
<path d="M3.66699 14.6667C3.66699 8.59162 8.59186 3.66675 14.667 3.66675C20.7421 3.66675 25.667 8.59162 25.667 14.6667C25.667 20.7419 20.7421 25.6667 14.667 25.6667C8.59186 25.6667 3.66699 20.7419 3.66699 14.6667Z" fill="#FF5F24" fill-opacity="0.05"/>
<path d="M3.66699 14.6667C3.66699 8.59162 8.59186 3.66675 14.667 3.66675C20.7421 3.66675 25.667 8.59162 25.667 14.6667C25.667 20.7419 20.7421 25.6667 14.667 25.6667C8.59186 25.6667 3.66699 20.7419 3.66699 14.6667Z" stroke="#FF5F24" stroke-width="2"/>
<path d="M24.1212 22.2929L23.4141 21.5858L21.9998 23L22.707 23.7071L24.1212 22.2929ZM27.3031 28.3033C27.6937 28.6938 28.3268 28.6938 28.7174 28.3033C29.1079 27.9128 29.1079 27.2796 28.7174 26.8891L27.3031 28.3033ZM22.707 23.7071L27.3031 28.3033L28.7174 26.8891L24.1212 22.2929L22.707 23.7071Z" fill="#FF5F24"/>
</svg>
