<svg width="32" height="32" viewBox="0 0 32 32" fill="none" xmlns="http://www.w3.org/2000/svg">
<path fill-rule="evenodd" clip-rule="evenodd" d="M14.8669 5.19995C9.52812 5.19995 5.2002 9.52787 5.2002 14.8666C5.2002 17.2176 6.03818 19.3702 7.43282 21.0459C7.65084 21.308 7.72042 21.6629 7.61745 21.9878L6.63286 25.0942L10.6376 23.8326C10.8567 23.7636 11.093 23.7721 11.3065 23.8567C12.407 24.293 13.6077 24.5333 14.8669 24.5333H17.5335C22.8723 24.5333 27.2002 20.2054 27.2002 14.8666C27.2002 9.52787 22.8723 5.19995 17.5335 5.19995H14.8669ZM3.2002 14.8666C3.2002 8.4233 8.42354 3.19995 14.8669 3.19995H17.5335C23.9769 3.19995 29.2002 8.4233 29.2002 14.8666C29.2002 21.3099 23.9769 26.5333 17.5335 26.5333H14.8669C13.4788 26.5333 12.1455 26.2905 10.9083 25.8442L6.62214 27.1945C5.33506 27.5999 4.12486 26.3877 4.53257 25.1013L5.5504 21.8901C4.07548 19.9363 3.2002 17.5026 3.2002 14.8666Z" fill="#48484A"/>
</svg>
