<svg width="32" height="32" viewBox="0 0 32 32" fill="none" xmlns="http://www.w3.org/2000/svg">
<circle cx="11.9998" cy="13.8665" r="1.33333" fill="#48484A"/>
<path fill-rule="evenodd" clip-rule="evenodd" d="M16 5.2666C9.92487 5.2666 5 10.1915 5 16.2666C5 22.3417 9.92487 27.2666 16 27.2666C22.0751 27.2666 27 22.3417 27 16.2666C27 10.1915 22.0751 5.2666 16 5.2666ZM3 16.2666C3 9.0869 8.8203 3.2666 16 3.2666C23.1797 3.2666 29 9.0869 29 16.2666C29 23.4463 23.1797 29.2666 16 29.2666C8.8203 29.2666 3 23.4463 3 16.2666Z" fill="#48484A"/>
<circle cx="19.9998" cy="13.8665" r="1.33333" fill="#48484A"/>
<path fill-rule="evenodd" clip-rule="evenodd" d="M11.5085 19.2C10.6109 19.2 10.0944 20.1712 10.7483 20.7861C12.1203 22.0762 13.9675 22.8666 15.9993 22.8666C18.0312 22.8666 19.8784 22.0762 21.2503 20.7861C21.9042 20.1712 21.3878 19.2 20.4901 19.2C20.1848 19.2 19.8956 19.3258 19.6628 19.5233C18.6749 20.3612 17.3962 20.8666 15.9993 20.8666C14.6025 20.8666 13.3237 20.3612 12.3359 19.5233C12.103 19.3258 11.8139 19.2 11.5085 19.2Z" fill="#48484A"/>
</svg>
