<svg width="18" height="18" viewBox="0 0 18 18" fill="none" xmlns="http://www.w3.org/2000/svg">
<path d="M2.25 5.75C2.25 4.64543 3.14543 3.75 4.25 3.75H13.75C14.8546 3.75 15.75 4.64543 15.75 5.75V6.75H2.25V5.75Z" fill="white"/>
<path d="M2.25 6.75H15.75V13.75C15.75 14.8546 14.8546 15.75 13.75 15.75H4.25C3.14543 15.75 2.25 14.8546 2.25 13.75V6.75Z" fill="#72787F"/>
<path d="M13.5 3.5625H4.5C3.15381 3.5625 2.0625 4.65381 2.0625 6V13.5C2.0625 14.8462 3.15381 15.9375 4.5 15.9375H13.5C14.8462 15.9375 15.9375 14.8462 15.9375 13.5V6C15.9375 4.65381 14.8462 3.5625 13.5 3.5625Z" stroke="#72787F"/>
<path d="M5.0625 2.0625V4.6875" stroke="#72787F" stroke-linecap="round"/>
<path d="M13.3125 2.0625V4.6875" stroke="#72787F" stroke-linecap="round"/>
<path d="M6.1875 10.5C6.49816 10.5 6.75 10.2482 6.75 9.9375C6.75 9.62684 6.49816 9.375 6.1875 9.375C5.87684 9.375 5.625 9.62684 5.625 9.9375C5.625 10.2482 5.87684 10.5 6.1875 10.5Z" fill="white"/>
<path d="M9.1875 10.5C9.49816 10.5 9.75 10.2482 9.75 9.9375C9.75 9.62684 9.49816 9.375 9.1875 9.375C8.87684 9.375 8.625 9.62684 8.625 9.9375C8.625 10.2482 8.87684 10.5 9.1875 10.5Z" fill="white"/>
<path d="M12.1875 10.5C12.4982 10.5 12.75 10.2482 12.75 9.9375C12.75 9.62684 12.4982 9.375 12.1875 9.375C11.8768 9.375 11.625 9.62684 11.625 9.9375C11.625 10.2482 11.8768 10.5 12.1875 10.5Z" fill="white"/>
<path d="M6.1875 13.5C6.49816 13.5 6.75 13.2482 6.75 12.9375C6.75 12.6268 6.49816 12.375 6.1875 12.375C5.87684 12.375 5.625 12.6268 5.625 12.9375C5.625 13.2482 5.87684 13.5 6.1875 13.5Z" fill="white"/>
<path d="M9.1875 13.5C9.49816 13.5 9.75 13.2482 9.75 12.9375C9.75 12.6268 9.49816 12.375 9.1875 12.375C8.87684 12.375 8.625 12.6268 8.625 12.9375C8.625 13.2482 8.87684 13.5 9.1875 13.5Z" fill="white"/>
<path d="M12.1875 13.5C12.4982 13.5 12.75 13.2482 12.75 12.9375C12.75 12.6268 12.4982 12.375 12.1875 12.375C11.8768 12.375 11.625 12.6268 11.625 12.9375C11.625 13.2482 11.8768 13.5 12.1875 13.5Z" fill="white"/>
</svg>
