<svg width="20" height="20" viewBox="0 0 20 20" fill="none" xmlns="http://www.w3.org/2000/svg">
<path d="M2 6.5C2 5.11929 3.11929 4 4.5 4H15.5C16.8807 4 18 5.11929 18 6.5V8H2V6.5Z" fill="white"/>
<path d="M2 7H18V15C18 16.6569 16.6569 18 15 18H5C3.34315 18 2 16.6569 2 15V7Z" fill="#8E8E93"/>
<path d="M14.9998 3.9585H4.99984C3.50407 3.9585 2.2915 5.17106 2.2915 6.66683V15.0002C2.2915 16.4959 3.50407 17.7085 4.99984 17.7085H14.9998C16.4956 17.7085 17.7082 16.4959 17.7082 15.0002V6.66683C17.7082 5.17106 16.4956 3.9585 14.9998 3.9585Z" stroke="#8E8E93"/>
<path d="M5.625 2.2915V5.20817" stroke="#8E8E93" stroke-linecap="round"/>
<path d="M14.7915 2.2915V5.20817" stroke="#8E8E93" stroke-linecap="round"/>
<path d="M6.875 11.6665C7.22018 11.6665 7.5 11.3867 7.5 11.0415C7.5 10.6963 7.22018 10.4165 6.875 10.4165C6.52982 10.4165 6.25 10.6963 6.25 11.0415C6.25 11.3867 6.52982 11.6665 6.875 11.6665Z" fill="white"/>
<path d="M10.2085 11.6665C10.5537 11.6665 10.8335 11.3867 10.8335 11.0415C10.8335 10.6963 10.5537 10.4165 10.2085 10.4165C9.86332 10.4165 9.5835 10.6963 9.5835 11.0415C9.5835 11.3867 9.86332 11.6665 10.2085 11.6665Z" fill="white"/>
<path d="M13.5415 11.6665C13.8867 11.6665 14.1665 11.3867 14.1665 11.0415C14.1665 10.6963 13.8867 10.4165 13.5415 10.4165C13.1963 10.4165 12.9165 10.6963 12.9165 11.0415C12.9165 11.3867 13.1963 11.6665 13.5415 11.6665Z" fill="white"/>
<path d="M6.875 15C7.22018 15 7.5 14.7202 7.5 14.375C7.5 14.0298 7.22018 13.75 6.875 13.75C6.52982 13.75 6.25 14.0298 6.25 14.375C6.25 14.7202 6.52982 15 6.875 15Z" fill="white"/>
<path d="M10.2085 15C10.5537 15 10.8335 14.7202 10.8335 14.375C10.8335 14.0298 10.5537 13.75 10.2085 13.75C9.86332 13.75 9.5835 14.0298 9.5835 14.375C9.5835 14.7202 9.86332 15 10.2085 15Z" fill="white"/>
<path d="M13.5415 15C13.8867 15 14.1665 14.7202 14.1665 14.375C14.1665 14.0298 13.8867 13.75 13.5415 13.75C13.1963 13.75 12.9165 14.0298 12.9165 14.375C12.9165 14.7202 13.1963 15 13.5415 15Z" fill="white"/>
</svg>
