<svg width="20" height="20" viewBox="0 0 20 20" fill="none" xmlns="http://www.w3.org/2000/svg">
<path d="M2 7C2 5.34315 3.34315 4 5 4H15C16.6569 4 18 5.34315 18 7V8H2V7Z" fill="white"/>
<path d="M2 7H18V15C18 16.6569 16.6569 18 15 18H5C3.34315 18 2 16.6569 2 15V7Z" fill="#72787F"/>
<path d="M15.0001 3.9585H5.00008C3.50431 3.9585 2.29175 5.17106 2.29175 6.66683V15.0002C2.29175 16.4959 3.50431 17.7085 5.00008 17.7085H15.0001C16.4959 17.7085 17.7084 16.4959 17.7084 15.0002V6.66683C17.7084 5.17106 16.4959 3.9585 15.0001 3.9585Z" stroke="#72787F"/>
<path d="M5.625 2.2915V5.20817" stroke="#72787F" stroke-width="0.75" stroke-linecap="round"/>
<path d="M14.7917 2.2915V5.20817" stroke="#72787F" stroke-width="0.75" stroke-linecap="round"/>
<path d="M6.875 11.6665C7.22018 11.6665 7.5 11.3867 7.5 11.0415C7.5 10.6963 7.22018 10.4165 6.875 10.4165C6.52982 10.4165 6.25 10.6963 6.25 11.0415C6.25 11.3867 6.52982 11.6665 6.875 11.6665Z" fill="white"/>
<path d="M10.2083 11.6665C10.5534 11.6665 10.8333 11.3867 10.8333 11.0415C10.8333 10.6963 10.5534 10.4165 10.2083 10.4165C9.86307 10.4165 9.58325 10.6963 9.58325 11.0415C9.58325 11.3867 9.86307 11.6665 10.2083 11.6665Z" fill="white"/>
<path d="M13.5417 11.6665C13.8869 11.6665 14.1667 11.3867 14.1667 11.0415C14.1667 10.6963 13.8869 10.4165 13.5417 10.4165C13.1966 10.4165 12.9167 10.6963 12.9167 11.0415C12.9167 11.3867 13.1966 11.6665 13.5417 11.6665Z" fill="white"/>
<path d="M6.875 15C7.22018 15 7.5 14.7202 7.5 14.375C7.5 14.0298 7.22018 13.75 6.875 13.75C6.52982 13.75 6.25 14.0298 6.25 14.375C6.25 14.7202 6.52982 15 6.875 15Z" fill="white"/>
<path d="M10.2083 15C10.5534 15 10.8333 14.7202 10.8333 14.375C10.8333 14.0298 10.5534 13.75 10.2083 13.75C9.86307 13.75 9.58325 14.0298 9.58325 14.375C9.58325 14.7202 9.86307 15 10.2083 15Z" fill="white"/>
<path d="M13.5417 15C13.8869 15 14.1667 14.7202 14.1667 14.375C14.1667 14.0298 13.8869 13.75 13.5417 13.75C13.1966 13.75 12.9167 14.0298 12.9167 14.375C12.9167 14.7202 13.1966 15 13.5417 15Z" fill="white"/>
</svg>
