<svg width="28" height="28" viewBox="0 0 28 28" fill="none" xmlns="http://www.w3.org/2000/svg">
<mask id="mask0_2236_9177" style="mask-type:alpha" maskUnits="userSpaceOnUse" x="2" y="3" width="24" height="22">
<path fill-rule="evenodd" clip-rule="evenodd" d="M20.8182 7.12597C21.2966 7.19171 21.698 7.29176 22.0656 7.44403C23.495 8.03608 24.6305 9.17168 25.2226 10.601C25.6667 11.673 25.6667 13.032 25.6667 15.75C25.6667 18.468 25.6667 19.827 25.2226 20.899C24.6305 22.3284 23.495 23.4639 22.0656 24.056C20.9937 24.5 19.6346 24.5 16.9167 24.5H11.0833C8.36534 24.5 7.00634 24.5 5.93434 24.056C4.50501 23.4639 3.36941 22.3284 2.77737 20.899C2.33333 19.827 2.33333 18.468 2.33333 15.75C2.33333 13.032 2.33333 11.673 2.77737 10.601C3.36941 9.17168 4.50501 8.03608 5.93434 7.44403C6.30198 7.29176 6.70337 7.19171 7.18177 7.12597C7.56612 5.77634 7.859 5.00563 8.42623 4.46545C8.6101 4.29035 8.81249 4.13576 9.0298 4.00444C9.86458 3.5 10.9323 3.5 13.0677 3.5H14.9323C17.0677 3.5 18.1354 3.5 18.9702 4.00444C19.1875 4.13576 19.3899 4.29035 19.5737 4.46545C20.141 5.00563 20.4339 5.77634 20.8182 7.12597Z" fill="white"/>
</mask>
<g mask="url(#mask0_2236_9177)">
<path d="M20.8182 7.12597L19.1352 7.6053L19.4481 8.70412L20.58 8.85967L20.8182 7.12597ZM22.0656 7.44404L22.7353 5.82725L22.0656 7.44404ZM25.2226 10.601L23.6059 11.2707L25.2226 10.601ZM25.2226 20.899L23.6059 20.2293L25.2226 20.899ZM22.0656 24.056L22.7353 25.6727L22.0656 24.056ZM5.93434 24.056L5.26465 25.6727L5.93434 24.056ZM2.77737 20.899L4.39416 20.2293L2.77737 20.899ZM2.77737 10.601L1.16058 9.93133L2.77737 10.601ZM5.93434 7.44404L6.60404 9.06083L5.93434 7.44404ZM7.18177 7.12597L7.42001 8.85967L8.5519 8.70412L8.86483 7.6053L7.18177 7.12597ZM8.42623 4.46546L9.6331 5.73273L8.42623 4.46546ZM9.0298 4.00445L9.93488 5.50223L9.0298 4.00445ZM18.9702 4.00445L18.0651 5.50223L18.9702 4.00445ZM19.5737 4.46546L20.7807 3.19818L19.5737 4.46546ZM20.58 8.85967C20.9505 8.91059 21.1997 8.97954 21.396 9.06083L22.7353 5.82725C22.1963 5.604 21.6428 5.47283 21.0565 5.39226L20.58 8.85967ZM21.396 9.06083C22.3965 9.47526 23.1913 10.2702 23.6059 11.2707L26.8394 9.93133C26.0697 8.0732 24.5934 6.59691 22.7353 5.82725L21.396 9.06083ZM23.6059 11.2707C23.7249 11.5579 23.8157 11.953 23.8652 12.6774C23.9157 13.4175 23.9167 14.367 23.9167 15.75H27.4167C27.4167 14.415 27.4176 13.326 27.357 12.4391C27.2956 11.5365 27.1644 10.7161 26.8394 9.93133L23.6059 11.2707ZM23.9167 15.75C23.9167 17.133 23.9157 18.0825 23.8652 18.8227C23.8157 19.547 23.7249 19.9421 23.6059 20.2293L26.8394 21.5686C27.1644 20.7839 27.2956 19.9634 27.357 19.0609C27.4176 18.174 27.4167 17.085 27.4167 15.75H23.9167ZM23.6059 20.2293C23.1913 21.2298 22.3965 22.0247 21.396 22.4392L22.7353 25.6727C24.5934 24.9031 26.0697 23.4268 26.8394 21.5686L23.6059 20.2293ZM21.396 22.4392C21.1087 22.5582 20.7137 22.6491 19.9893 22.6986C19.2492 22.7491 18.2996 22.75 16.9167 22.75V26.25C18.2517 26.25 19.3406 26.2509 20.2275 26.1904C21.1301 26.1289 21.9506 25.9978 22.7353 25.6727L21.396 22.4392ZM16.9167 22.75H11.0833V26.25H16.9167V22.75ZM11.0833 22.75C9.70039 22.75 8.75083 22.7491 8.01072 22.6986C7.28632 22.6491 6.89127 22.5582 6.60404 22.4392L5.26465 25.6727C6.04942 25.9978 6.86987 26.1289 7.77247 26.1904C8.65935 26.2509 9.74828 26.25 11.0833 26.25V22.75ZM6.60404 22.4392C5.60351 22.0247 4.80859 21.2298 4.39416 20.2293L1.16058 21.5686C1.93024 23.4268 3.40653 24.9031 5.26465 25.6727L6.60404 22.4392ZM4.39416 20.2293C4.27519 19.9421 4.1842 19.547 4.13478 18.8227C4.08428 18.0825 4.08333 17.133 4.08333 15.75H0.583333C0.583333 17.085 0.582386 18.174 0.642897 19.0609C0.704481 19.9634 0.835516 20.7839 1.16058 21.5686L4.39416 20.2293ZM4.08333 15.75C4.08333 14.367 4.08428 13.4175 4.13478 12.6774C4.1842 11.953 4.27519 11.5579 4.39416 11.2707L1.16058 9.93133C0.835516 10.7161 0.704481 11.5365 0.642897 12.4391C0.582386 13.326 0.583333 14.415 0.583333 15.75H4.08333ZM4.39416 11.2707C4.80859 10.2702 5.60351 9.47526 6.60404 9.06083L5.26465 5.82725C3.40653 6.59691 1.93024 8.0732 1.16058 9.93133L4.39416 11.2707ZM6.60404 9.06083C6.80032 8.97954 7.04952 8.91059 7.42001 8.85967L6.94351 5.39226C6.35722 5.47283 5.80365 5.604 5.26465 5.82725L6.60404 9.06083ZM8.86483 7.6053C9.26269 6.2083 9.45786 5.89961 9.6331 5.73273L7.21937 3.19818C6.26015 4.11168 5.86956 5.3444 5.49869 6.64663L8.86483 7.6053ZM9.6331 5.73273C9.72503 5.64518 9.82621 5.56789 9.93488 5.50223L8.12472 2.50667C7.79875 2.70365 7.49518 2.93551 7.21937 3.19818L9.6331 5.73273ZM9.93488 5.50223C10.0455 5.43539 10.2353 5.35376 10.7331 5.30458C11.2654 5.25199 11.9653 5.25001 13.0677 5.25001V1.75001C12.0346 1.75001 11.133 1.74802 10.3889 1.82155C9.61029 1.89848 8.84891 2.06907 8.12472 2.50667L9.93488 5.50223ZM13.0677 5.25001H14.9323V1.75001H13.0677V5.25001ZM14.9323 5.25001C16.0347 5.25001 16.7346 5.25199 17.2669 5.30458C17.7647 5.35376 17.9545 5.43539 18.0651 5.50223L19.8753 2.50667C19.1511 2.06907 18.3897 1.89848 17.6111 1.82155C16.867 1.74802 15.9654 1.75001 14.9323 1.75001V5.25001ZM18.0651 5.50223C18.1737 5.56789 18.275 5.64518 18.3669 5.73274L20.7807 3.19818C20.5049 2.93551 20.2013 2.70365 19.8753 2.50667L18.0651 5.50223ZM18.3669 5.73273C18.5422 5.89961 18.7374 6.2083 19.1352 7.6053L22.5013 6.64663C22.1305 5.3444 21.7399 4.11168 20.7807 3.19818L18.3669 5.73273Z" fill="#9EA4AA"/>
<path d="M17.7917 15.1667C17.7917 13.0726 16.0941 11.375 14 11.375C11.9059 11.375 10.2083 13.0726 10.2083 15.1667C10.2083 17.2607 11.9059 18.9583 14 18.9583C16.0941 18.9583 17.7917 17.2607 17.7917 15.1667Z" stroke="#9EA4AA" stroke-width="1.5"/>
</g>
</svg>
