<svg width="20" height="20" viewBox="0 0 20 20" fill="none" xmlns="http://www.w3.org/2000/svg">
<path fill-rule="evenodd" clip-rule="evenodd" d="M8 3C6.89543 3 6 3.89543 6 5V6C3.79086 6 2 7.79086 2 10V13C2 15.2091 3.79086 17 6 17H14C16.2091 17 18 15.2091 18 13V10C18 7.79086 16.2091 6 14 6V5C14 3.89543 13.1046 3 12 3H8Z" fill="#9EA4AA"/>
<mask id="mask0_1905_20355" style="mask-type:alpha" maskUnits="userSpaceOnUse" x="1" y="2" width="18" height="16">
<path fill-rule="evenodd" clip-rule="evenodd" d="M14.8702 5.08998C15.2118 5.13693 15.4986 5.2084 15.7612 5.31717C16.7822 5.74006 17.5932 6.5512 18.0162 7.57215C18.3333 8.33783 18.3333 9.30858 18.3333 11.25C18.3333 13.1914 18.3333 14.1622 18.0162 14.9278C17.5932 15.9488 16.7822 16.7599 15.7612 17.1828C14.9955 17.5 14.0247 17.5 12.0833 17.5H7.91666C5.97523 17.5 5.00452 17.5 4.23881 17.1828C3.21786 16.7599 2.40671 15.9488 1.98382 14.9278C1.66666 14.1622 1.66666 13.1914 1.66666 11.25C1.66666 9.30858 1.66666 8.33783 1.98382 7.57215C2.40671 6.5512 3.21786 5.74006 4.23881 5.31717C4.50141 5.2084 4.78811 5.13693 5.12982 5.08998C5.40436 4.12596 5.61356 3.57545 6.01872 3.18961C6.15006 3.06453 6.29462 2.95412 6.44985 2.86032C7.04612 2.5 7.80877 2.5 9.33407 2.5H10.6659C12.1912 2.5 12.9538 2.5 13.5502 2.86032C13.7053 2.95412 13.8499 3.06453 13.9812 3.18961C14.3864 3.57545 14.5957 4.12596 14.8702 5.08998Z" fill="white"/>
</mask>
<g mask="url(#mask0_1905_20355)">
<path d="M14.8702 5.08998L13.668 5.43235L13.8915 6.21723L14.7 6.32834L14.8702 5.08998ZM15.7612 5.31717L16.2395 4.16232L15.7612 5.31717ZM18.0162 7.57215L16.8613 8.05051L18.0162 7.57215ZM18.0162 14.9278L16.8613 14.4495L18.0162 14.9278ZM15.7612 17.1828L16.2395 18.3377L15.7612 17.1828ZM4.23881 17.1828L3.76046 18.3377L4.23881 17.1828ZM1.98382 14.9278L3.13867 14.4495L1.98382 14.9278ZM1.98382 7.57215L0.828976 7.0938L1.98382 7.57215ZM4.23881 5.31717L4.71717 6.47202L4.23881 5.31717ZM5.12982 5.08998L5.3 6.32834L6.10849 6.21723L6.33202 5.43235L5.12982 5.08998ZM6.01872 3.18961L6.88077 4.0948L6.01872 3.18961ZM6.44985 2.86032L7.09633 3.93016L6.44985 2.86032ZM13.5502 2.86032L12.9037 3.93016L13.5502 2.86032ZM13.9812 3.18961L14.8433 2.28441L13.9812 3.18961ZM14.7 6.32834C14.9647 6.3647 15.1427 6.41395 15.2828 6.47202L16.2395 4.16232C15.8545 4.00285 15.4592 3.90916 15.0403 3.85161L14.7 6.32834ZM15.2828 6.47202C15.9975 6.76805 16.5652 7.33585 16.8613 8.05051L19.171 7.0938C18.6212 5.76657 17.5667 4.71208 16.2395 4.16232L15.2828 6.47202ZM16.8613 8.05051C16.9463 8.25567 17.0112 8.53784 17.0466 9.05525C17.0827 9.58392 17.0833 10.2622 17.0833 11.25H19.5833C19.5833 10.2964 19.584 9.51859 19.5407 8.88509C19.4968 8.24039 19.4032 7.65435 19.171 7.0938L16.8613 8.05051ZM17.0833 11.25C17.0833 12.2378 17.0827 12.9161 17.0466 13.4448C17.0112 13.9622 16.9463 14.2443 16.8613 14.4495L19.171 15.4062C19.4032 14.8457 19.4968 14.2596 19.5407 13.6149C19.584 12.9814 19.5833 12.2036 19.5833 11.25H17.0833ZM16.8613 14.4495C16.5652 15.1642 15.9975 15.7319 15.2828 16.028L16.2395 18.3377C17.5667 17.7879 18.6212 16.7334 19.171 15.4062L16.8613 14.4495ZM15.2828 16.028C15.0777 16.113 14.7955 16.1779 14.2781 16.2133C13.7494 16.2493 13.0712 16.25 12.0833 16.25V18.75C13.0369 18.75 13.8147 18.7507 14.4482 18.7074C15.0929 18.6635 15.679 18.5698 16.2395 18.3377L15.2828 16.028ZM12.0833 16.25H7.91666V18.75H12.0833V16.25ZM7.91666 16.25C6.92884 16.25 6.25058 16.2493 5.72193 16.2133C5.20451 16.1779 4.92232 16.113 4.71717 16.028L3.76046 18.3377C4.32101 18.5698 4.90704 18.6635 5.55176 18.7074C6.18524 18.7507 6.96305 18.75 7.91666 18.75V16.25ZM4.71717 16.028C4.0025 15.7319 3.4347 15.1642 3.13867 14.4495L0.828976 15.4062C1.37873 16.7334 2.43322 17.7879 3.76046 18.3377L4.71717 16.028ZM3.13867 14.4495C3.0537 14.2443 2.98871 13.9622 2.95341 13.4448C2.91733 12.9161 2.91666 12.2378 2.91666 11.25H0.416657C0.416657 12.2036 0.41598 12.9814 0.459203 13.6149C0.503191 14.2596 0.596788 14.8457 0.828976 15.4062L3.13867 14.4495ZM2.91666 11.25C2.91666 10.2622 2.91733 9.58392 2.95341 9.05525C2.98871 8.53784 3.0537 8.25567 3.13867 8.05051L0.828976 7.0938C0.596788 7.65435 0.503191 8.24039 0.459203 8.88509C0.41598 9.51859 0.416657 10.2964 0.416657 11.25H2.91666ZM3.13867 8.05051C3.4347 7.33585 4.0025 6.76805 4.71717 6.47202L3.76046 4.16232C2.43322 4.71208 1.37873 5.76657 0.828976 7.0938L3.13867 8.05051ZM4.71717 6.47202C4.85737 6.41395 5.03537 6.3647 5.3 6.32834L4.95964 3.85161C4.54087 3.90916 4.14546 4.00285 3.76046 4.16232L4.71717 6.47202ZM6.33202 5.43235C6.6162 4.4345 6.75561 4.214 6.88077 4.0948L5.15668 2.28441C4.47152 2.93691 4.19253 3.81743 3.92762 4.7476L6.33202 5.43235ZM6.88077 4.0948C6.94644 4.03227 7.01872 3.97706 7.09633 3.93016L5.80337 1.79048C5.57052 1.93118 5.35369 2.0968 5.15668 2.28441L6.88077 4.0948ZM7.09633 3.93016C7.17533 3.88242 7.31095 3.82411 7.66647 3.78899C8.04672 3.75142 8.54666 3.75 9.33407 3.75V1.25C8.59616 1.25 7.95213 1.24859 7.42067 1.3011C6.86448 1.35605 6.32064 1.4779 5.80337 1.79048L7.09633 3.93016ZM9.33407 3.75H10.6659V1.25H9.33407V3.75ZM10.6659 3.75C11.4533 3.75 11.9532 3.75142 12.3335 3.78899C12.6891 3.82411 12.8247 3.88242 12.9037 3.93016L14.1967 1.79048C13.6793 1.4779 13.1355 1.35605 12.5793 1.3011C12.0478 1.24859 11.4038 1.25 10.6659 1.25V3.75ZM12.9037 3.93016C12.9812 3.97706 13.0536 4.03227 13.1192 4.09481L14.8433 2.28441C14.6463 2.0968 14.4295 1.93118 14.1967 1.79048L12.9037 3.93016ZM13.1192 4.0948C13.2444 4.214 13.3838 4.4345 13.668 5.43235L16.0723 4.7476C15.8075 3.81743 15.5285 2.93691 14.8433 2.28441L13.1192 4.0948Z" fill="#9EA4AA"/>
<path d="M12.7083 10.8333C12.7083 9.33756 11.4958 8.125 10 8.125C8.50423 8.125 7.29167 9.33756 7.29167 10.8333C7.29167 12.3291 8.50423 13.5417 10 13.5417C11.4958 13.5417 12.7083 12.3291 12.7083 10.8333Z" stroke="white" stroke-width="1.5"/>
</g>
</svg>
