<svg width="20" height="20" viewBox="0 0 20 20" fill="none" xmlns="http://www.w3.org/2000/svg">
<path fill-rule="evenodd" clip-rule="evenodd" d="M8 3C6.89543 3 6 3.89543 6 5V6C3.79086 6 2 7.79086 2 10V13C2 15.2091 3.79086 17 6 17H14C16.2091 17 18 15.2091 18 13V10C18 7.79086 16.2091 6 14 6V5C14 3.89543 13.1046 3 12 3H8Z" fill="#8E8E93"/>
<mask id="mask0_821_11719" style="mask-type:alpha" maskUnits="userSpaceOnUse" x="1" y="2" width="18" height="16">
<path fill-rule="evenodd" clip-rule="evenodd" d="M14.87 5.08998C15.2117 5.13693 15.4984 5.2084 15.761 5.31717C16.782 5.74006 17.5931 6.5512 18.016 7.57215C18.3332 8.33783 18.3332 9.30858 18.3332 11.25C18.3332 13.1914 18.3332 14.1622 18.016 14.9278C17.5931 15.9488 16.782 16.7599 15.761 17.1828C14.9953 17.5 14.0246 17.5 12.0832 17.5H7.9165C5.97508 17.5 5.00437 17.5 4.23865 17.1828C3.2177 16.7599 2.40656 15.9488 1.98367 14.9278C1.6665 14.1622 1.6665 13.1914 1.6665 11.25C1.6665 9.30858 1.6665 8.33783 1.98367 7.57215C2.40656 6.5512 3.2177 5.74006 4.23865 5.31717C4.50125 5.2084 4.78796 5.13693 5.12967 5.08998C5.40421 4.12596 5.61341 3.57545 6.01857 3.18961C6.14991 3.06453 6.29447 2.95412 6.4497 2.86032C7.04597 2.5 7.80861 2.5 9.33392 2.5H10.6658C12.1911 2.5 12.9537 2.5 13.55 2.86032C13.7052 2.95412 13.8498 3.06453 13.9811 3.18961C14.3863 3.57545 14.5955 4.12596 14.87 5.08998Z" fill="white"/>
</mask>
<g mask="url(#mask0_821_11719)">
<path d="M14.87 5.08998L13.6678 5.43235L13.8913 6.21723L14.6998 6.32834L14.87 5.08998ZM15.761 5.31717L16.2393 4.16232L15.761 5.31717ZM18.016 7.57215L16.8612 8.05051L18.016 7.57215ZM18.016 14.9278L16.8612 14.4495L18.016 14.9278ZM15.761 17.1828L16.2393 18.3377L15.761 17.1828ZM4.23865 17.1828L3.7603 18.3377L4.23865 17.1828ZM1.98367 14.9278L3.13852 14.4495L1.98367 14.9278ZM1.98367 7.57215L0.828824 7.0938L1.98367 7.57215ZM4.23865 5.31717L4.71701 6.47202L4.23865 5.31717ZM5.12967 5.08998L5.29985 6.32834L6.10834 6.21723L6.33186 5.43235L5.12967 5.08998ZM6.01857 3.18961L6.88062 4.0948L6.01857 3.18961ZM6.4497 2.86032L7.09618 3.93016L6.4497 2.86032ZM13.55 2.86032L12.9035 3.93016L13.55 2.86032ZM13.9811 3.18961L14.8432 2.28441L13.9811 3.18961ZM14.6998 6.32834C14.9645 6.3647 15.1425 6.41395 15.2827 6.47202L16.2393 4.16232C15.8543 4.00285 15.459 3.90916 15.0402 3.85161L14.6998 6.32834ZM15.2827 6.47202C15.9973 6.76805 16.5651 7.33585 16.8612 8.05051L19.1708 7.0938C18.6211 5.76657 17.5666 4.71208 16.2393 4.16232L15.2827 6.47202ZM16.8612 8.05051C16.9462 8.25567 17.0111 8.53784 17.0464 9.05525C17.0825 9.58392 17.0832 10.2622 17.0832 11.25H19.5832C19.5832 10.2964 19.5838 9.51859 19.5406 8.88509C19.4967 8.24039 19.403 7.65435 19.1708 7.0938L16.8612 8.05051ZM17.0832 11.25C17.0832 12.2378 17.0825 12.9161 17.0464 13.4448C17.0111 13.9622 16.9462 14.2443 16.8612 14.4495L19.1708 15.4062C19.403 14.8457 19.4967 14.2596 19.5406 13.6149C19.5838 12.9814 19.5832 12.2036 19.5832 11.25H17.0832ZM16.8612 14.4495C16.5651 15.1642 15.9973 15.7319 15.2827 16.028L16.2393 18.3377C17.5666 17.7879 18.6211 16.7334 19.1708 15.4062L16.8612 14.4495ZM15.2827 16.028C15.0775 16.113 14.7953 16.1779 14.2779 16.2133C13.7493 16.2493 13.071 16.25 12.0832 16.25V18.75C13.0368 18.75 13.8146 18.7507 14.4481 18.7074C15.0928 18.6635 15.6788 18.5698 16.2393 18.3377L15.2827 16.028ZM12.0832 16.25H7.9165V18.75H12.0832V16.25ZM7.9165 16.25C6.92869 16.25 6.25043 16.2493 5.72178 16.2133C5.20435 16.1779 4.92217 16.113 4.71701 16.028L3.7603 18.3377C4.32085 18.5698 4.90689 18.6635 5.5516 18.7074C6.18509 18.7507 6.9629 18.75 7.9165 18.75V16.25ZM4.71701 16.028C4.00235 15.7319 3.43455 15.1642 3.13852 14.4495L0.828824 15.4062C1.37858 16.7334 2.43307 17.7879 3.7603 18.3377L4.71701 16.028ZM3.13852 14.4495C3.05355 14.2443 2.98855 13.9622 2.95325 13.4448C2.91718 12.9161 2.9165 12.2378 2.9165 11.25H0.416505C0.416505 12.2036 0.415828 12.9814 0.45905 13.6149C0.503039 14.2596 0.596635 14.8457 0.828824 15.4062L3.13852 14.4495ZM2.9165 11.25C2.9165 10.2622 2.91718 9.58392 2.95325 9.05525C2.98855 8.53784 3.05355 8.25567 3.13852 8.05051L0.828824 7.0938C0.596635 7.65435 0.503039 8.24039 0.45905 8.88509C0.415828 9.51859 0.416505 10.2964 0.416505 11.25H2.9165ZM3.13852 8.05051C3.43455 7.33585 4.00235 6.76805 4.71701 6.47202L3.7603 4.16232C2.43307 4.71208 1.37858 5.76657 0.828824 7.0938L3.13852 8.05051ZM4.71701 6.47202C4.85721 6.41395 5.03521 6.3647 5.29985 6.32834L4.95949 3.85161C4.54071 3.90916 4.1453 4.00285 3.7603 4.16232L4.71701 6.47202ZM6.33186 5.43235C6.61605 4.4345 6.75545 4.214 6.88062 4.0948L5.15653 2.28441C4.47137 2.93691 4.19238 3.81743 3.92747 4.7476L6.33186 5.43235ZM6.88062 4.0948C6.94629 4.03227 7.01856 3.97706 7.09618 3.93016L5.80321 1.79048C5.57037 1.93118 5.35354 2.0968 5.15653 2.28441L6.88062 4.0948ZM7.09618 3.93016C7.17518 3.88242 7.3108 3.82411 7.66632 3.78899C8.04657 3.75142 8.5465 3.75 9.33392 3.75V1.25C8.596 1.25 7.95198 1.24859 7.42051 1.3011C6.86433 1.35605 6.32049 1.4779 5.80321 1.79048L7.09618 3.93016ZM9.33392 3.75H10.6658V1.25H9.33392V3.75ZM10.6658 3.75C11.4532 3.75 11.9531 3.75142 12.3333 3.78899C12.6889 3.82411 12.8245 3.88242 12.9035 3.93016L14.1965 1.79048C13.6792 1.4779 13.1353 1.35605 12.5792 1.3011C12.0477 1.24859 11.4037 1.25 10.6658 1.25V3.75ZM12.9035 3.93016C12.9811 3.97706 13.0534 4.03227 13.1191 4.09481L14.8432 2.28441C14.6462 2.0968 14.4293 1.93118 14.1965 1.79048L12.9035 3.93016ZM13.1191 4.0948C13.2443 4.214 13.3837 4.4345 13.6678 5.43235L16.0722 4.7476C15.8073 3.81743 15.5283 2.93691 14.8432 2.28441L13.1191 4.0948Z" fill="#8E8E93"/>
<path d="M12.7082 10.8333C12.7082 9.33756 11.4956 8.125 9.99984 8.125C8.50407 8.125 7.2915 9.33756 7.2915 10.8333C7.2915 12.3291 8.50407 13.5417 9.99984 13.5417C11.4956 13.5417 12.7082 12.3291 12.7082 10.8333Z" stroke="white" stroke-width="1.5"/>
</g>
</svg>
