<svg width="28" height="28" viewBox="0 0 28 28" fill="none" xmlns="http://www.w3.org/2000/svg">
<rect width="28" height="28" fill="white"/>
<path d="M22.75 13.1875C22.75 18.1235 18.3848 22.125 13 22.125C11.5482 22.125 10.1705 21.8341 8.9325 21.3125C8.20431 21.0057 5.08695 22.5793 4.46875 22.125C3.86388 21.6805 5.75554 19.2111 5.28125 18.6486C4.00774 17.1383 3.25 15.244 3.25 13.1875C3.25 8.25145 7.61522 4.25 13 4.25C18.3848 4.25 22.75 8.25145 22.75 13.1875Z" fill="white"/>
<path fill-rule="evenodd" clip-rule="evenodd" d="M12.0793 5.22498C7.74153 5.22498 4.2251 8.74141 4.2251 13.0791C4.2251 14.9893 4.90596 16.7383 6.03911 18.0999C6.21624 18.3127 6.27278 18.6011 6.18912 18.8651L5.38914 21.3891L8.64296 20.364C8.82102 20.3079 9.01296 20.3148 9.1865 20.3836C10.0807 20.7381 11.0562 20.9333 12.0793 20.9333H14.2459C18.5837 20.9333 22.1001 17.4169 22.1001 13.0791C22.1001 8.74141 18.5837 5.22498 14.2459 5.22498H12.0793ZM2.6001 13.0791C2.6001 7.84395 6.84407 3.59998 12.0793 3.59998H14.2459C19.4811 3.59998 23.7251 7.84395 23.7251 13.0791C23.7251 18.3144 19.4811 22.5583 14.2459 22.5583H12.0793C10.9515 22.5583 9.86814 22.361 8.86293 21.9984L5.38043 23.0955C4.33468 23.425 3.35139 22.44 3.68265 21.3948L4.50964 18.7857C3.31126 17.1983 2.6001 15.2209 2.6001 13.0791Z" fill="#26282B"/>
<circle cx="21" cy="17" r="7" fill="white"/>
<path d="M21 13V21" stroke="#26282B" stroke-width="2" stroke-linecap="round"/>
<path d="M25 17H17" stroke="#26282B" stroke-width="2" stroke-linecap="round"/>
</svg>
