<svg width="18" height="18" viewBox="0 0 18 18" fill="none" xmlns="http://www.w3.org/2000/svg">
<path d="M15.75 8.4375C15.75 11.8548 12.7279 14.625 9 14.625C7.99491 14.625 7.04112 14.4236 6.18404 14.0625C5.67991 13.8501 3.52173 14.9395 3.09375 14.625C2.67499 14.3173 3.98461 12.6077 3.65625 12.2183C2.77459 11.1727 2.25 9.86125 2.25 8.4375C2.25 5.02024 5.27208 2.25 9 2.25C12.7279 2.25 15.75 5.02024 15.75 8.4375Z" fill="#FF5F24"/>
<path fill-rule="evenodd" clip-rule="evenodd" d="M8.25 2.8125C5.24696 2.8125 2.8125 5.24696 2.8125 8.25C2.8125 9.5724 3.28387 10.7833 4.06835 11.7259C4.19098 11.8733 4.23013 12.0729 4.1722 12.2557L3.61838 14.003L5.87102 13.2934C5.99429 13.2545 6.12718 13.2593 6.24732 13.3069C6.86635 13.5524 7.5417 13.6875 8.25 13.6875H9.75C12.7531 13.6875 15.1875 11.2531 15.1875 8.25C15.1875 5.24696 12.7531 2.8125 9.75 2.8125H8.25ZM1.6875 8.25C1.6875 4.62563 4.62563 1.6875 8.25 1.6875H9.75C13.3744 1.6875 16.3125 4.62563 16.3125 8.25C16.3125 11.8744 13.3744 14.8125 9.75 14.8125H8.25C7.46923 14.8125 6.71922 14.6759 6.02331 14.4249L3.61235 15.1844C2.88836 15.4125 2.20762 14.7306 2.43696 14.007L2.80358 14.1232L2.43696 14.007L3.00949 12.2007C2.17985 11.1017 1.6875 9.73275 1.6875 8.25Z" fill="#FF5F24"/>
<path d="M6.375 9C6.78921 9 7.125 8.66421 7.125 8.25C7.125 7.83579 6.78921 7.5 6.375 7.5C5.96079 7.5 5.625 7.83579 5.625 8.25C5.625 8.66421 5.96079 9 6.375 9Z" fill="white"/>
<path d="M9 9C9.41421 9 9.75 8.66421 9.75 8.25C9.75 7.83579 9.41421 7.5 9 7.5C8.58579 7.5 8.25 7.83579 8.25 8.25C8.25 8.66421 8.58579 9 9 9Z" fill="white"/>
<path d="M11.625 9C12.0392 9 12.375 8.66421 12.375 8.25C12.375 7.83579 12.0392 7.5 11.625 7.5C11.2108 7.5 10.875 7.83579 10.875 8.25C10.875 8.66421 11.2108 9 11.625 9Z" fill="white"/>
</svg>
