<svg width="32" height="32" viewBox="0 0 32 32" fill="none" xmlns="http://www.w3.org/2000/svg">
<path fill-rule="evenodd" clip-rule="evenodd" d="M14.6667 5C9.32792 5 5 9.32792 5 14.6667C5 17.0176 5.83799 19.1703 7.23263 20.846C7.45064 21.108 7.52023 21.4629 7.41725 21.7879L6.43267 24.8943L10.4374 23.6327C10.6565 23.5636 10.8928 23.5721 11.1063 23.6568C12.2069 24.0931 13.4075 24.3333 14.6667 24.3333H17.3333C22.6721 24.3333 27 20.0055 27 14.6667C27 9.32792 22.6721 5 17.3333 5H14.6667ZM3 14.6667C3 8.22335 8.22335 3 14.6667 3H17.3333C23.7767 3 29 8.22335 29 14.6667C29 21.11 23.7767 26.3333 17.3333 26.3333H14.6667C13.2786 26.3333 11.9453 26.0905 10.7081 25.6443L6.42195 26.9945C5.13487 27.4 3.92467 26.1877 4.33237 24.9013L4.98413 25.108L4.33237 24.9013L5.3502 21.6901C3.87528 19.7364 3 17.3027 3 14.6667Z" fill="#FFB59A"/>
<path d="M11.3333 16.0007C12.0697 16.0007 12.6667 15.4037 12.6667 14.6673C12.6667 13.9309 12.0697 13.334 11.3333 13.334C10.597 13.334 10 13.9309 10 14.6673C10 15.4037 10.597 16.0007 11.3333 16.0007Z" fill="#FFB59A"/>
<path d="M16 16.0007C16.7363 16.0007 17.3333 15.4037 17.3333 14.6673C17.3333 13.9309 16.7363 13.334 16 13.334C15.2636 13.334 14.6666 13.9309 14.6666 14.6673C14.6666 15.4037 15.2636 16.0007 16 16.0007Z" fill="#FFB59A"/>
<path d="M20.6667 16.0007C21.4031 16.0007 22 15.4037 22 14.6673C22 13.9309 21.4031 13.334 20.6667 13.334C19.9303 13.334 19.3334 13.9309 19.3334 14.6673C19.3334 15.4037 19.9303 16.0007 20.6667 16.0007Z" fill="#FFB59A"/>
</svg>
