<svg width="26" height="26" viewBox="0 0 26 26" fill="none" xmlns="http://www.w3.org/2000/svg">
<path fill-rule="evenodd" clip-rule="evenodd" d="M11.1629 20.3281C10.5942 20.3281 10.1618 20.8582 10.4593 21.3428C10.9832 22.1963 11.9251 22.7656 13.0001 22.7656C14.075 22.7656 15.0169 22.1963 15.541 21.3428C15.8384 20.8582 15.406 20.3281 14.8373 20.3281C14.4754 20.3281 14.1646 20.5665 13.8924 20.805C13.6542 21.014 13.3419 21.1406 13.0001 21.1406C12.6582 21.1406 12.346 21.014 12.1077 20.805C11.8356 20.5665 11.5247 20.3281 11.1629 20.3281Z" fill="#72787F"/>
<mask id="mask0_1891_21605" style="mask-type:alpha" maskUnits="userSpaceOnUse" x="3" y="1" width="20" height="19">
<path fill-rule="evenodd" clip-rule="evenodd" d="M21.125 11.7537C21.125 8.51634 19.5181 5.49008 16.8362 3.67674L15.4272 2.72404C13.9609 1.73261 12.0391 1.73261 10.5728 2.72404L9.1638 3.67673C6.48193 5.49008 4.87502 8.51633 4.87502 11.7537V13.8271C4.21012 14.4222 3.79169 15.287 3.79169 16.2495C3.79169 18.0445 5.24677 19.4995 7.04169 19.4995H18.9584C20.7533 19.4995 22.2084 18.0445 22.2084 16.2495C22.2084 15.287 21.7899 14.4222 21.125 13.8271V11.7537Z" fill="white"/>
</mask>
<g mask="url(#mask0_1891_21605)">
<path d="M5.95875 15.0379L6.50002 14.5535V13.8271V11.7537C6.50002 9.05589 7.83911 6.53401 10.074 5.0229L11.483 4.07019C12.3994 3.45056 13.6006 3.45056 14.517 4.07019L15.926 5.0229C18.1609 6.53401 19.5 9.05589 19.5 11.7537V13.8271V14.5535L20.0413 15.0379C20.3763 15.3378 20.5834 15.7684 20.5834 16.2495C20.5834 17.147 19.8558 17.8745 18.9584 17.8745H7.04169C6.14422 17.8745 5.41669 17.147 5.41669 16.2495C5.41669 15.7684 5.62371 15.3378 5.95875 15.0379ZM22.75 11.7537C22.75 7.97677 20.8753 4.44613 17.7464 2.33057L16.3374 1.37787C14.3213 0.0146677 11.6788 0.0146673 9.66261 1.37787L8.25359 2.33057C5.12474 4.44613 3.25002 7.97677 3.25002 11.7537V13.1854C2.57367 14.0217 2.16669 15.0888 2.16669 16.2495C2.16669 18.9419 4.3493 21.1245 7.04169 21.1245H18.9584C21.6508 21.1245 23.8334 18.9419 23.8334 16.2495C23.8334 15.0888 23.4264 14.0217 22.75 13.1853V11.7537Z" fill="#72787F"/>
<path d="M5.95875 15.0379L6.50002 14.5535V13.8271V11.7537C6.50002 9.05589 7.83911 6.53401 10.074 5.0229L11.483 4.07019C12.3994 3.45056 13.6006 3.45056 14.517 4.07019L15.926 5.0229C18.1609 6.53401 19.5 9.05589 19.5 11.7537V13.8271V14.5535L20.0413 15.0379C20.3763 15.3378 20.5834 15.7684 20.5834 16.2495C20.5834 17.147 19.8558 17.8745 18.9584 17.8745H7.04169C6.14422 17.8745 5.41669 17.147 5.41669 16.2495C5.41669 15.7684 5.62371 15.3378 5.95875 15.0379ZM22.75 11.7537C22.75 7.97677 20.8753 4.44613 17.7464 2.33057L16.3374 1.37787C14.3213 0.0146677 11.6788 0.0146673 9.66261 1.37787L8.25359 2.33057C5.12474 4.44613 3.25002 7.97677 3.25002 11.7537V13.1854C2.57367 14.0217 2.16669 15.0888 2.16669 16.2495C2.16669 18.9419 4.3493 21.1245 7.04169 21.1245H18.9584C21.6508 21.1245 23.8334 18.9419 23.8334 16.2495C23.8334 15.0888 23.4264 14.0217 22.75 13.1853V11.7537Z" stroke="#72787F"/>
</g>
</svg>
