<svg width="28" height="28" viewBox="0 0 28 28" fill="none" xmlns="http://www.w3.org/2000/svg">
<path d="M22.561 18.3899C23.2591 17.0318 23.6238 15.527 23.625 14C23.625 8.69312 19.3069 4.375 14 4.375C8.69312 4.375 4.375 8.69312 4.375 14C4.375 19.3069 8.69312 23.625 14 23.625C15.5242 23.625 17.0345 23.2584 18.3907 22.5619L22.5382 23.5987C22.6847 23.6356 22.8383 23.6338 22.9839 23.5935C23.1294 23.5531 23.262 23.4757 23.3686 23.3686C23.4755 23.2617 23.5529 23.129 23.5932 22.9833C23.6336 22.8376 23.6355 22.684 23.5987 22.5374L22.561 18.3899ZM20.7821 18.4861L21.5469 21.5469L18.4861 20.7812C18.2698 20.7278 18.0412 20.7585 17.8465 20.867C16.6718 21.5269 15.3473 21.874 14 21.875C9.65738 21.875 6.125 18.3417 6.125 14C6.125 9.65825 9.65738 6.125 14 6.125C18.3426 6.125 21.875 9.65825 21.875 14C21.8738 15.3469 21.527 16.671 20.8679 17.8456C20.7582 18.0402 20.7275 18.2695 20.7821 18.4861Z" fill="#C9CDD2"/>
</svg>
