<svg width="22" height="22" viewBox="0 0 22 22" fill="none" xmlns="http://www.w3.org/2000/svg">
<path d="M17.8059 4.19985C16.9137 3.29886 15.8523 2.58303 14.6827 2.09349C13.513 1.60394 12.2582 1.35032 10.9902 1.3472C9.72229 1.34408 8.46621 1.59152 7.29417 2.0753C6.12213 2.55909 5.05723 3.26968 4.16065 4.16627C3.26407 5.06285 2.55347 6.12775 2.06969 7.29979C1.5859 8.47182 1.33846 9.7279 1.34158 10.9959C1.3447 12.2638 1.59832 13.5187 2.08787 14.6883C2.57742 15.8579 3.29325 16.9193 4.19423 17.8115C5.08639 18.7125 6.14778 19.4283 7.31742 19.9179C8.48707 20.4074 9.74191 20.661 11.0099 20.6641C12.2778 20.6673 13.5339 20.4198 14.7059 19.936C15.878 19.4523 16.9429 18.7417 17.8395 17.8451C18.736 16.9485 19.4466 15.8836 19.9304 14.7116C20.4142 13.5395 20.6616 12.2834 20.6585 11.0155C20.6554 9.74753 20.4018 8.49268 19.9122 7.32304C19.4227 6.1534 18.7069 5.09201 17.8059 4.19985ZM2.75005 11.0057C2.74975 10.2755 2.84656 9.54855 3.03795 8.84391C3.35334 9.52282 3.81138 10.1093 4.12291 10.8059C4.52552 11.7013 5.60662 11.453 6.084 12.2376C6.50767 12.9341 6.05521 13.815 6.37232 14.5437C6.60263 15.0727 7.14576 15.1882 7.52045 15.575C7.9033 15.9651 7.89513 16.4997 7.95357 17.0084C8.01951 17.6061 8.12647 18.1987 8.27369 18.7817C8.27369 18.786 8.27369 18.7907 8.27712 18.795C5.06177 17.6658 2.75005 14.6009 2.75005 11.0057ZM11.0001 19.2557C10.5393 19.2555 10.0794 19.217 9.62505 19.1405C9.62978 19.0241 9.63193 18.9154 9.64353 18.8397C9.74794 18.1565 10.09 17.4884 10.5515 16.977C11.0074 16.4726 11.6321 16.1314 12.0171 15.5591C12.3944 15.0005 12.5074 14.2485 12.3519 13.5958C12.1228 12.6316 10.8127 12.3098 10.1063 11.7868C9.70025 11.4861 9.33888 11.0211 8.80564 10.9833C8.55986 10.9661 8.35404 11.019 8.11041 10.9563C7.88697 10.8982 7.71166 10.7779 7.47361 10.8093C7.02888 10.8677 6.7483 11.343 6.27048 11.2785C5.81716 11.2179 5.35009 10.6873 5.24697 10.2554C5.11462 9.70028 5.55377 9.52024 6.02427 9.47083C6.22064 9.4502 6.44107 9.42786 6.6297 9.50004C6.87806 9.592 6.99537 9.8352 7.21838 9.95809C7.63646 10.1875 7.72111 9.82102 7.65709 9.44977C7.56127 8.89376 7.44955 8.66731 7.94541 8.28446C8.28916 8.02063 8.58306 7.82985 8.52806 7.3559C8.49541 7.07747 8.34287 6.95157 8.48509 6.67442C8.59295 6.46344 8.889 6.27309 9.08193 6.14719C9.57994 5.82235 11.2153 5.84641 10.5472 4.93719C10.3508 4.67036 9.98857 4.1934 9.64482 4.12809C9.21513 4.04688 9.02435 4.52641 8.72486 4.73782C8.41548 4.95653 7.81306 5.20489 7.50326 4.86672C7.08646 4.41169 7.77955 4.26258 7.93294 3.94462C8.00384 3.79637 7.93294 3.59055 7.81349 3.39676C7.96847 3.33145 8.12602 3.27087 8.28615 3.21501C8.3865 3.28913 8.50555 3.33377 8.6299 3.34391C8.91736 3.36282 9.18849 3.20727 9.43943 3.40321C9.71787 3.61805 9.91853 3.88962 10.2881 3.95665C10.6456 4.02153 11.0241 3.81313 11.1126 3.44704C11.1663 3.22446 11.1126 2.98942 11.0611 2.75954C12.6681 2.76878 14.237 3.25006 15.5728 4.14356C15.4869 4.1109 15.3842 4.11477 15.2574 4.17364C14.9966 4.29481 14.627 4.60333 14.5965 4.90926C14.5617 5.25645 15.0739 5.30544 15.3171 5.30544C15.6824 5.30544 16.0523 5.14215 15.9346 4.7202C15.8835 4.53715 15.8138 4.3468 15.7017 4.23165C15.9713 4.41871 16.2296 4.6216 16.4751 4.83922C16.4713 4.84309 16.4674 4.84653 16.4635 4.85083C16.216 5.10864 15.9286 5.31274 15.7593 5.62641C15.6398 5.84727 15.5053 5.95212 15.2634 6.00926C15.1302 6.04063 14.9781 6.05223 14.8664 6.14161C14.5553 6.38653 14.7323 6.9752 15.0271 7.1518C15.3996 7.37481 15.9522 7.26997 16.2332 6.95157C16.4528 6.70235 16.5821 6.26965 16.977 6.27008C17.1509 6.26972 17.3179 6.33779 17.4419 6.45958C17.6052 6.62887 17.573 6.787 17.6078 6.9984C17.6692 7.37395 18.0005 7.17028 18.202 6.98079C18.3489 7.24222 18.4815 7.51146 18.5991 7.78731C18.3774 8.10657 18.2012 8.45462 17.6679 8.08251C17.3487 7.8595 17.1523 7.53594 16.7514 7.4354C16.4012 7.34946 16.0424 7.43883 15.6965 7.49856C15.3034 7.56688 14.8372 7.59696 14.539 7.89473C14.2506 8.18176 14.0981 8.5659 13.7913 8.85422C13.1979 9.41282 12.9474 10.0225 13.3315 10.8123C13.7011 11.5716 14.4741 11.9836 15.3081 11.9295C16.1275 11.8749 16.9787 11.3997 16.9551 12.5904C16.9465 13.0119 17.0346 13.3036 17.1639 13.6951C17.2838 14.056 17.2756 14.4058 17.3031 14.7783C17.3293 15.2146 17.3975 15.6473 17.5068 16.0704C16.7366 17.062 15.75 17.8645 14.6223 18.4166C13.4946 18.9686 12.2556 19.2556 11.0001 19.2557Z" fill="#454C53"/>
</svg>
