<svg width="22" height="22" viewBox="0 0 22 22" fill="none" xmlns="http://www.w3.org/2000/svg">
<path d="M17.8058 4.19985C16.9137 3.29886 15.8523 2.58303 14.6826 2.09349C13.513 1.60394 12.2581 1.35032 10.9902 1.3472C9.72223 1.34408 8.46615 1.59152 7.29411 2.0753C6.12207 2.55909 5.05717 3.26968 4.16059 4.16627C3.26401 5.06285 2.55341 6.12775 2.06963 7.29979C1.58584 8.47182 1.3384 9.7279 1.34152 10.9959C1.34464 12.2638 1.59826 13.5187 2.08781 14.6883C2.57736 15.8579 3.29319 16.9193 4.19417 17.8115C5.08633 18.7125 6.14772 19.4283 7.31736 19.9179C8.48701 20.4074 9.74185 20.661 11.0098 20.6641C12.2778 20.6673 13.5338 20.4198 14.7059 19.936C15.8779 19.4523 16.9428 18.7417 17.8394 17.8451C18.736 16.9485 19.4466 15.8836 19.9304 14.7116C20.4141 13.5395 20.6616 12.2834 20.6585 11.0155C20.6553 9.74753 20.4017 8.49268 19.9122 7.32304C19.4226 6.1534 18.7068 5.09201 17.8058 4.19985ZM2.74999 11.0057C2.74969 10.2755 2.8465 9.54855 3.03788 8.84391C3.35327 9.52282 3.81132 10.1093 4.12284 10.8059C4.52546 11.7013 5.60656 11.453 6.08394 12.2376C6.50761 12.9341 6.05515 13.815 6.37226 14.5437C6.60257 15.0727 7.1457 15.1882 7.52038 15.575C7.90324 15.9651 7.89507 16.4997 7.95351 17.0084C8.01945 17.6061 8.12641 18.1987 8.27363 18.7817C8.27363 18.786 8.27363 18.7907 8.27706 18.795C5.06171 17.6658 2.74999 14.6009 2.74999 11.0057ZM11 19.2557C10.5393 19.2555 10.0793 19.217 9.62499 19.1405C9.62972 19.0241 9.63187 18.9154 9.64347 18.8397C9.74788 18.1565 10.0899 17.4884 10.5514 16.977C11.0073 16.4726 11.6321 16.1314 12.0171 15.5591C12.3943 15.0005 12.5073 14.2485 12.3518 13.5958C12.1228 12.6316 10.8126 12.3098 10.1062 11.7868C9.70019 11.4861 9.33882 11.0211 8.80558 10.9833C8.5598 10.9661 8.35398 11.019 8.11034 10.9563C7.88691 10.8982 7.71159 10.7779 7.47355 10.8093C7.02882 10.8677 6.74824 11.343 6.27042 11.2785C5.8171 11.2179 5.35003 10.6873 5.24691 10.2554C5.11456 9.70028 5.5537 9.52024 6.02421 9.47083C6.22058 9.4502 6.44101 9.42786 6.62964 9.50004C6.878 9.592 6.99531 9.8352 7.21831 9.95809C7.6364 10.1875 7.72105 9.82102 7.65702 9.44977C7.5612 8.89376 7.44949 8.66731 7.94535 8.28446C8.2891 8.02063 8.583 7.82985 8.528 7.3559C8.49535 7.07747 8.34281 6.95157 8.48503 6.67442C8.59288 6.46344 8.88894 6.27309 9.08187 6.14719C9.57988 5.82235 11.2153 5.84641 10.5471 4.93719C10.3507 4.67036 9.98851 4.1934 9.64476 4.12809C9.21507 4.04688 9.02429 4.52641 8.7248 4.73782C8.41542 4.95653 7.813 5.20489 7.5032 4.86672C7.0864 4.41169 7.77949 4.26258 7.93288 3.94462C8.00378 3.79637 7.93288 3.59055 7.81343 3.39676C7.9684 3.33145 8.12596 3.27087 8.28609 3.21501C8.38644 3.28913 8.50549 3.33377 8.62984 3.34391C8.9173 3.36282 9.18843 3.20727 9.43937 3.40321C9.71781 3.61805 9.91847 3.88962 10.288 3.95665C10.6455 4.02153 11.0241 3.81313 11.1126 3.44704C11.1663 3.22446 11.1126 2.98942 11.061 2.75954C12.668 2.76878 14.2369 3.25006 15.5727 4.14356C15.4868 4.1109 15.3841 4.11477 15.2573 4.17364C14.9965 4.29481 14.627 4.60333 14.5965 4.90926C14.5617 5.25645 15.0739 5.30544 15.3171 5.30544C15.6823 5.30544 16.0523 5.14215 15.9345 4.7202C15.8834 4.53715 15.8138 4.3468 15.7016 4.23165C15.9712 4.41871 16.2295 4.6216 16.4751 4.83922C16.4712 4.84309 16.4673 4.84653 16.4635 4.85083C16.216 5.10864 15.9285 5.31274 15.7592 5.62641C15.6398 5.84727 15.5053 5.95212 15.2634 6.00926C15.1302 6.04063 14.978 6.05223 14.8663 6.14161C14.5552 6.38653 14.7323 6.9752 15.027 7.1518C15.3996 7.37481 15.9521 7.26997 16.2332 6.95157C16.4527 6.70235 16.5821 6.26965 16.9769 6.27008C17.1508 6.26972 17.3178 6.33779 17.4419 6.45958C17.6052 6.62887 17.5729 6.787 17.6077 6.9984C17.6692 7.37395 18.0005 7.17028 18.202 6.98079C18.3489 7.24222 18.4814 7.51146 18.599 7.78731C18.3773 8.10657 18.2011 8.45462 17.6679 8.08251C17.3486 7.8595 17.1523 7.53594 16.7514 7.4354C16.4012 7.34946 16.0424 7.43883 15.6965 7.49856C15.3033 7.56688 14.8371 7.59696 14.5389 7.89473C14.2506 8.18176 14.098 8.5659 13.7912 8.85422C13.1978 9.41282 12.9473 10.0225 13.3315 10.8123C13.701 11.5716 14.474 11.9836 15.308 11.9295C16.1275 11.8749 16.9787 11.3997 16.955 12.5904C16.9464 13.0119 17.0345 13.3036 17.1639 13.6951C17.2837 14.056 17.2756 14.4058 17.3031 14.7783C17.3292 15.2146 17.3974 15.6473 17.5068 16.0704C16.7366 17.062 15.75 17.8645 14.6222 18.4166C13.4945 18.9686 12.2556 19.2556 11 19.2557Z" fill="white"/>
</svg>
