<svg width="18" height="18" viewBox="0 0 18 18" fill="none" xmlns="http://www.w3.org/2000/svg">
<path d="M2.25 9C2.25 6.1877 2.25 4.78155 2.96618 3.7958C3.19748 3.47745 3.47745 3.19748 3.7958 2.96618C4.78155 2.25 6.1877 2.25 9 2.25C11.8123 2.25 13.2185 2.25 14.2042 2.96618C14.5225 3.19748 14.8025 3.47745 15.0338 3.7958C15.75 4.78155 15.75 6.1877 15.75 9C15.75 11.8123 15.75 13.2185 15.0338 14.2042C14.8025 14.5225 14.5225 14.8025 14.2042 15.0338C13.2185 15.75 11.8123 15.75 9 15.75H2.25V9Z" stroke="#72787F" stroke-width="1.25" stroke-linejoin="round"/>
<path d="M5.8125 10.6875H9.9375" stroke="#72787F" stroke-width="1.25" stroke-linecap="round"/>
<path d="M5.8125 7.6875H12.1875" stroke="#72787F" stroke-width="1.25" stroke-linecap="round"/>
</svg>
