<svg width="40" height="40" viewBox="0 0 40 40" fill="none" xmlns="http://www.w3.org/2000/svg">
<g filter="url(#filter0_d_1461_12109)">
<circle cx="20" cy="18" r="15" fill="white"/>
</g>
<path fill-rule="evenodd" clip-rule="evenodd" d="M18 11C16.8954 11 16 11.8954 16 13V14C13.7909 14 12 15.7909 12 18V21C12 23.2091 13.7909 25 16 25H24C26.2091 25 28 23.2091 28 21V18C28 15.7909 26.2091 14 24 14V13C24 11.8954 23.1046 11 22 11H18Z" fill="#9EA4AA"/>
<mask id="mask0_1461_12109" style="mask-type:alpha" maskUnits="userSpaceOnUse" x="11" y="10" width="18" height="16">
<path fill-rule="evenodd" clip-rule="evenodd" d="M24.8702 13.09C25.2119 13.1369 25.4987 13.2084 25.7612 13.3172C26.7822 13.7401 27.5933 14.5512 28.0162 15.5722C28.3334 16.3378 28.3334 17.3086 28.3334 19.25C28.3334 21.1914 28.3334 22.1622 28.0162 22.9278C27.5933 23.9488 26.7822 24.7599 25.7612 25.1828C24.9956 25.5 24.0248 25.5 22.0834 25.5H17.9167C15.9753 25.5 15.0046 25.5 14.2389 25.1828C13.2179 24.7599 12.4068 23.9488 11.9839 22.9278C11.6667 22.1622 11.6667 21.1914 11.6667 19.25C11.6667 17.3086 11.6667 16.3378 11.9839 15.5722C12.4068 14.5512 13.2179 13.7401 14.2389 13.3172C14.5015 13.2084 14.7882 13.1369 15.1299 13.09C15.4045 12.126 15.6137 11.5754 16.0188 11.1896C16.1502 11.0645 16.2947 10.9541 16.4499 10.8603C17.0462 10.5 17.8089 10.5 19.3342 10.5H20.666C22.1913 10.5 22.9539 10.5 23.5502 10.8603C23.7054 10.9541 23.85 11.0645 23.9813 11.1896C24.3865 11.5754 24.5957 12.126 24.8702 13.09Z" fill="white"/>
</mask>
<g mask="url(#mask0_1461_12109)">
<path d="M24.8702 13.09L23.6681 13.4324L23.8916 14.2172L24.7001 14.3283L24.8702 13.09ZM25.7612 13.3172L26.2396 12.1623L25.7612 13.3172ZM28.0162 15.5722L26.8614 16.0505L28.0162 15.5722ZM28.0162 22.9278L26.8614 22.4495L28.0162 22.9278ZM25.7612 25.1828L26.2396 26.3377L25.7612 25.1828ZM14.2389 25.1828L13.7605 26.3377L14.2389 25.1828ZM11.9839 22.9278L13.1388 22.4495L11.9839 22.9278ZM11.9839 15.5722L10.8291 15.0938L11.9839 15.5722ZM14.2389 13.3172L14.7173 14.472L14.2389 13.3172ZM15.1299 13.09L15.3001 14.3283L16.1086 14.2172L16.3321 13.4324L15.1299 13.09ZM16.0188 11.1896L16.8809 12.0948L16.0188 11.1896ZM16.4499 10.8603L17.0964 11.9302L16.4499 10.8603ZM23.5502 10.8603L22.9037 11.9302L23.5502 10.8603ZM23.9813 11.1896L24.8434 10.2844L23.9813 11.1896ZM24.7001 14.3283C24.9647 14.3647 25.1427 14.414 25.2829 14.472L26.2396 12.1623C25.8546 12.0029 25.4592 11.9092 25.0404 11.8516L24.7001 14.3283ZM25.2829 14.472C25.9976 14.768 26.5653 15.3358 26.8614 16.0505L29.1711 15.0938C28.6213 13.7666 27.5668 12.7121 26.2396 12.1623L25.2829 14.472ZM26.8614 16.0505C26.9464 16.2557 27.0113 16.5378 27.0467 17.0553C27.0827 17.5839 27.0834 18.2622 27.0834 19.25H29.5834C29.5834 18.2964 29.5841 17.5186 29.5408 16.8851C29.4969 16.2404 29.4032 15.6544 29.1711 15.0938L26.8614 16.0505ZM27.0834 19.25C27.0834 20.2378 27.0827 20.9161 27.0467 21.4448C27.0113 21.9622 26.9464 22.2443 26.8614 22.4495L29.1711 23.4062C29.4032 22.8457 29.4969 22.2596 29.5408 21.6149C29.5841 20.9814 29.5834 20.2036 29.5834 19.25H27.0834ZM26.8614 22.4495C26.5653 23.1642 25.9976 23.7319 25.2829 24.028L26.2396 26.3377C27.5668 25.7879 28.6213 24.7334 29.1711 23.4062L26.8614 22.4495ZM25.2829 24.028C25.0777 24.113 24.7956 24.1779 24.2782 24.2133C23.7495 24.2493 23.0712 24.25 22.0834 24.25V26.75C23.037 26.75 23.8148 26.7507 24.4483 26.7074C25.093 26.6635 25.6791 26.5698 26.2396 26.3377L25.2829 24.028ZM22.0834 24.25H17.9167V26.75H22.0834V24.25ZM17.9167 24.25C16.9289 24.25 16.2507 24.2493 15.722 24.2133C15.2046 24.1779 14.9224 24.113 14.7173 24.028L13.7605 26.3377C14.3211 26.5698 14.9071 26.6635 15.5518 26.7074C16.1853 26.7507 16.9631 26.75 17.9167 26.75V24.25ZM14.7173 24.028C14.0026 23.7319 13.4348 23.1642 13.1388 22.4495L10.8291 23.4062C11.3788 24.7334 12.4333 25.7879 13.7605 26.3377L14.7173 24.028ZM13.1388 22.4495C13.0538 22.2443 12.9888 21.9622 12.9535 21.4448C12.9174 20.9161 12.9167 20.2378 12.9167 19.25H10.4167C10.4167 20.2036 10.4161 20.9814 10.4593 21.6149C10.5033 22.2596 10.5969 22.8457 10.8291 23.4062L13.1388 22.4495ZM12.9167 19.25C12.9167 18.2622 12.9174 17.5839 12.9535 17.0553C12.9888 16.5378 13.0538 16.2557 13.1388 16.0505L10.8291 15.0938C10.5969 15.6544 10.5033 16.2404 10.4593 16.8851C10.4161 17.5186 10.4167 18.2964 10.4167 19.25H12.9167ZM13.1388 16.0505C13.4348 15.3358 14.0026 14.768 14.7173 14.472L13.7605 12.1623C12.4333 12.7121 11.3788 13.7666 10.8291 15.0938L13.1388 16.0505ZM14.7173 14.472C14.8575 14.414 15.0355 14.3647 15.3001 14.3283L14.9597 11.8516C14.541 11.9092 14.1455 12.0029 13.7605 12.1623L14.7173 14.472ZM16.3321 13.4324C16.6163 12.4345 16.7557 12.214 16.8809 12.0948L15.1568 10.2844C14.4716 10.9369 14.1926 11.8174 13.9277 12.7476L16.3321 13.4324ZM16.8809 12.0948C16.9465 12.0323 17.0188 11.9771 17.0964 11.9302L15.8035 9.79048C15.5706 9.93118 15.3538 10.0968 15.1568 10.2844L16.8809 12.0948ZM17.0964 11.9302C17.1754 11.8824 17.311 11.8241 17.6666 11.789C18.0468 11.7514 18.5467 11.75 19.3342 11.75V9.25C18.5962 9.25 17.9522 9.24859 17.4208 9.3011C16.8646 9.35605 16.3207 9.4779 15.8035 9.79048L17.0964 11.9302ZM19.3342 11.75H20.666V9.25H19.3342V11.75ZM20.666 11.75C21.4534 11.75 21.9533 11.7514 22.3336 11.789C22.6892 11.8241 22.8247 11.8824 22.9037 11.9302L24.1967 9.79048C23.6794 9.4779 23.1356 9.35605 22.5794 9.3011C22.0479 9.24859 21.4039 9.25 20.666 9.25V11.75ZM22.9037 11.9302C22.9813 11.9771 23.0537 12.0323 23.1193 12.0948L24.8434 10.2844C24.6464 10.0968 24.4296 9.93118 24.1967 9.79048L22.9037 11.9302ZM23.1193 12.0948C23.2445 12.214 23.3839 12.4345 23.6681 13.4324L26.0724 12.7476C25.8076 11.8174 25.5286 10.9369 24.8434 10.2844L23.1193 12.0948Z" fill="#9EA4AA"/>
<path d="M22.7084 18.8333C22.7084 17.3376 21.4959 16.125 20.0001 16.125C18.5043 16.125 17.2917 17.3376 17.2917 18.8333C17.2917 20.3291 18.5043 21.5417 20.0001 21.5417C21.4959 21.5417 22.7084 20.3291 22.7084 18.8333Z" stroke="white" stroke-width="1.5"/>
</g>
<defs>
<filter id="filter0_d_1461_12109" x="0" y="0" width="40" height="40" filterUnits="userSpaceOnUse" color-interpolation-filters="sRGB">
<feFlood flood-opacity="0" result="BackgroundImageFix"/>
<feColorMatrix in="SourceAlpha" type="matrix" values="0 0 0 0 0 0 0 0 0 0 0 0 0 0 0 0 0 0 127 0" result="hardAlpha"/>
<feOffset dy="2"/>
<feGaussianBlur stdDeviation="2.5"/>
<feComposite in2="hardAlpha" operator="out"/>
<feColorMatrix type="matrix" values="0 0 0 0 0 0 0 0 0 0 0 0 0 0 0 0 0 0 0.08 0"/>
<feBlend mode="normal" in2="BackgroundImageFix" result="effect1_dropShadow_1461_12109"/>
<feBlend mode="normal" in="SourceGraphic" in2="effect1_dropShadow_1461_12109" result="shape"/>
</filter>
</defs>
</svg>
