<svg width="22" height="22" viewBox="0 0 22 22" fill="none" xmlns="http://www.w3.org/2000/svg">
<circle cx="11" cy="11" r="9" fill="#48484A" stroke="#48484A" stroke-width="1.5"/>
<path d="M10.5584 6.83138C10.7464 6.47743 11.2536 6.47743 11.4416 6.83138L12.4196 8.67281C12.4918 8.80888 12.6228 8.90403 12.7746 8.93072L14.8281 9.29184C15.2228 9.36125 15.3795 9.8436 15.101 10.1318L13.6519 11.631C13.5448 11.7417 13.4948 11.8957 13.5163 12.0483L13.8075 14.1129C13.8634 14.5097 13.4531 14.8078 13.093 14.632L11.2194 13.7171C11.0809 13.6495 10.919 13.6495 10.7806 13.7171L8.90701 14.632C8.54687 14.8078 8.13656 14.5097 8.19252 14.1129L8.48365 12.0483C8.50516 11.8957 8.45514 11.7417 8.34806 11.631L6.89898 10.1318C6.62044 9.8436 6.77717 9.36125 7.1719 9.29184L9.22542 8.93072C9.37716 8.90403 9.50813 8.80888 9.5804 8.67281L10.5584 6.83138Z" fill="#F6F6F6"/>
</svg>
