<svg width="18" height="18" viewBox="0 0 18 18" fill="none" xmlns="http://www.w3.org/2000/svg">
<path d="M3.20407 15.5459L8.15147 10.5985C8.44849 10.3015 8.59699 10.153 8.76824 10.0974C8.91887 10.0484 9.08113 10.0484 9.23176 10.0974C9.40301 10.153 9.55152 10.3015 9.84853 10.5985L14.7629 15.5129M10.5 11.25L12.6515 9.09853C12.9485 8.80152 13.097 8.65301 13.2682 8.59737C13.4189 8.54842 13.5811 8.54842 13.7318 8.59737C13.903 8.65301 14.0515 8.80152 14.3485 9.09853L16.5 11.25M7.5 6.75C7.5 7.57843 6.82843 8.25 6 8.25C5.17157 8.25 4.5 7.57843 4.5 6.75C4.5 5.92157 5.17157 5.25 6 5.25C6.82843 5.25 7.5 5.92157 7.5 6.75ZM5.1 15.75H12.9C14.1601 15.75 14.7902 15.75 15.2715 15.5048C15.6948 15.289 16.039 14.9448 16.2548 14.5215C16.5 14.0402 16.5 13.4101 16.5 12.15V5.85C16.5 4.58988 16.5 3.95982 16.2548 3.47852C16.039 3.05516 15.6948 2.71095 15.2715 2.49524C14.7902 2.25 14.1601 2.25 12.9 2.25H5.1C3.83988 2.25 3.20982 2.25 2.72852 2.49524C2.30516 2.71095 1.96095 3.05516 1.74524 3.47852C1.5 3.95982 1.5 4.58988 1.5 5.85V12.15C1.5 13.4101 1.5 14.0402 1.74524 14.5215C1.96095 14.9448 2.30516 15.289 2.72852 15.5048C3.20982 15.75 3.83988 15.75 5.1 15.75Z" stroke="#72787F" stroke-width="1.25" stroke-linecap="round" stroke-linejoin="round"/>
</svg>
