<svg width="20" height="20" viewBox="0 0 20 20" fill="none" xmlns="http://www.w3.org/2000/svg">
<rect x="4.54541" y="1.81836" width="10.9091" height="10.9091" rx="2" fill="#72787F"/>
<path d="M15.8334 10.6248C15.4917 10.6248 15.2084 10.3415 15.2084 9.99984V4.99984C15.2084 3.1415 15.2084 2.2915 12.5001 2.2915H7.50008C4.79175 2.2915 4.79175 3.1415 4.79175 4.99984V9.99984C4.79175 10.3415 4.50841 10.6248 4.16675 10.6248C3.82508 10.6248 3.54175 10.3415 3.54175 9.99984V4.99984C3.54175 3.1415 3.54175 1.0415 7.50008 1.0415H12.5001C16.4584 1.0415 16.4584 3.1415 16.4584 4.99984V9.99984C16.4584 10.3415 16.1751 10.6248 15.8334 10.6248Z" fill="#72787F"/>
<path d="M13.3333 18.9583H6.66667C1.875 18.9583 1.875 16.4167 1.875 14.1667V13.3333C1.875 11.475 1.875 9.375 5.83333 9.375C6.825 9.375 7.19167 9.61667 7.70833 10C7.73333 10.025 7.76667 10.0417 7.79167 10.075L8.64167 10.975C9.35833 11.7333 10.6583 11.7333 11.375 10.975L12.225 10.075C12.25 10.05 12.275 10.025 12.3083 10C12.825 9.60833 13.1917 9.375 14.1833 9.375C18.1417 9.375 18.1417 11.475 18.1417 13.3333V14.1667C18.125 17.35 16.5167 18.9583 13.3333 18.9583Z" fill="white"/>
<path d="M6.76866 10.0101C6.97401 10.0895 7.14356 10.2041 7.39056 10.3868C7.40103 10.3959 7.4101 10.4033 7.41692 10.4087L7.42522 10.4152L7.42816 10.4183L8.27816 11.3183L8.27827 11.3184C9.19223 12.2855 10.8244 12.2855 11.7384 11.3184L11.7385 11.3183L12.5834 10.4237C12.604 10.4032 12.6068 10.4012 12.6081 10.4001L12.6083 10.4L12.6104 10.3985C12.8653 10.2052 13.0378 10.0875 13.2465 10.0076C13.4521 9.92884 13.7265 9.875 14.1833 9.875C16.0858 9.875 16.8669 10.3776 17.2283 10.9308C17.6265 11.5402 17.6417 12.3657 17.6417 13.3333V14.1653C17.6335 15.6784 17.2481 16.7278 16.5719 17.4022C15.8958 18.0766 14.8464 18.4583 13.3333 18.4583H6.66667C4.34749 18.4583 3.35809 17.8453 2.89253 17.1328C2.39016 16.3639 2.375 15.3301 2.375 14.1667V13.3333C2.375 12.3657 2.39016 11.5402 2.78837 10.9308C3.14977 10.3776 3.93086 9.875 5.83333 9.875C6.28812 9.875 6.56248 9.9304 6.76866 10.0101ZM7.44109 10.4275C7.44199 10.4282 7.44165 10.428 7.44031 10.4269L7.44109 10.4275ZM12.7848 10.5655L12.7495 10.5918L12.7193 10.6239L11.912 11.4811C11.9119 11.4813 11.9117 11.4814 11.9116 11.4816C11.4051 12.016 10.7277 12.3083 10 12.3083C9.27227 12.3083 8.59496 12.016 8.08847 11.4816C8.08831 11.4815 8.08814 11.4813 8.08798 11.4811L7.28066 10.6239L7.25048 10.5918L7.21517 10.5655C7.04213 10.4368 6.8632 10.304 6.62862 10.2231C6.3952 10.1427 6.14432 10.125 5.83333 10.125C4.48253 10.125 3.56533 10.323 3.06568 10.9795C2.82046 11.3016 2.71861 11.6819 2.67112 12.0646C2.62497 12.4365 2.62499 12.8641 2.625 13.3106L2.625 13.3333V14.1667L2.625 14.1888C2.62499 14.7424 2.62498 15.2755 2.68426 15.7459C2.74493 16.2272 2.87272 16.694 3.16537 17.0906C3.76421 17.9022 4.8831 18.2083 6.66667 18.2083H13.3333C14.6321 18.2083 15.6777 17.9336 16.389 17.2223C17.1002 16.511 17.375 15.4654 17.375 14.1667V13.3333V13.3106C17.375 12.8641 17.375 12.4365 17.3289 12.0646C17.2814 11.6819 17.1795 11.3016 16.9343 10.9795C16.4347 10.323 15.5175 10.125 14.1667 10.125C13.8557 10.125 13.6048 10.1427 13.3714 10.2231C13.1368 10.304 12.9579 10.4368 12.7848 10.5655Z" fill="white" stroke="#72787F"/>
<path d="M11.5665 8.31641H8.7915C8.44984 8.31641 8.1665 8.03307 8.1665 7.69141C8.1665 7.34974 8.44984 7.06641 8.7915 7.06641H11.5665C11.9082 7.06641 12.1915 7.34974 12.1915 7.69141C12.1915 8.03307 11.9165 8.31641 11.5665 8.31641Z" fill="white"/>
<path d="M12.2665 5.81641H8.09985C7.75819 5.81641 7.47485 5.53307 7.47485 5.19141C7.47485 4.84974 7.75819 4.56641 8.09985 4.56641H12.2665C12.6082 4.56641 12.8915 4.84974 12.8915 5.19141C12.8915 5.53307 12.6165 5.81641 12.2665 5.81641Z" fill="white"/>
</svg>
