<svg width="15" height="15" viewBox="0 0 15 15" fill="none" xmlns="http://www.w3.org/2000/svg">
<path d="M7.5 1.875C4.73857 1.875 2.5 4.11357 2.5 6.875V7.07963C2.5 8.13313 2.83254 9.15375 3.44149 10H3.4375L3.45187 10.0144C3.57632 10.186 3.71219 10.3504 3.859 10.5064C4.08023 10.7415 7.5 13.4375 7.5 13.4375C7.99906 13.1833 10.7337 10.9391 11.141 10.5064C11.2894 10.3488 11.4265 10.1826 11.5521 10.0089L11.5625 10H11.5585C12.1674 9.15375 12.5 8.13313 12.5 7.07963V6.875C12.5 4.11357 10.2614 1.875 7.5 1.875Z" fill="#72787F"/>
<path d="M9.53125 6.875C9.53125 5.75317 8.62183 4.84375 7.5 4.84375C6.37817 4.84375 5.46875 5.75317 5.46875 6.875C5.46875 7.99683 6.37817 8.90625 7.5 8.90625C8.62183 8.90625 9.53125 7.99683 9.53125 6.875Z" fill="white"/>
</svg>
