<svg width="18" height="18" viewBox="0 0 18 18" fill="none" xmlns="http://www.w3.org/2000/svg">
<path d="M9 2.25C5.68629 2.25 3 4.93629 3 8.25V8.49555C3 9.75975 3.39905 10.9845 4.12979 12H4.125L4.14224 12.0173C4.29158 12.2232 4.45462 12.4205 4.6308 12.6077C4.89628 12.8898 9 16.125 9 16.125C9.59888 15.82 12.8805 13.127 13.3692 12.6077C13.5472 12.4186 13.7118 12.2191 13.8625 12.0107L13.875 12H13.8702C14.6009 10.9845 15 9.75975 15 8.49555V8.25C15 4.93629 12.3137 2.25 9 2.25Z" fill="#72787F"/>
<path d="M11.4375 8.25C11.4375 6.90381 10.3462 5.8125 9 5.8125C7.65381 5.8125 6.5625 6.90381 6.5625 8.25C6.5625 9.59619 7.65381 10.6875 9 10.6875C10.3462 10.6875 11.4375 9.59619 11.4375 8.25Z" fill="white"/>
</svg>
