<svg width="20" height="20" viewBox="0 0 20 20" fill="none" xmlns="http://www.w3.org/2000/svg">
<path d="M10.0002 2.5C6.31826 2.5 3.3335 5.48477 3.3335 9.16667V9.4395C3.3335 10.8442 3.77689 12.205 4.58881 13.3333H4.5835L4.60265 13.3525C4.76859 13.5813 4.94975 13.8006 5.1455 14.0086C5.44047 14.322 10.0002 17.9167 10.0002 17.9167C10.6656 17.5777 14.3118 14.5855 14.8548 14.0086C15.0527 13.7984 15.2355 13.5767 15.4029 13.3452L15.4168 13.3333H15.4115C16.2234 12.205 16.6668 10.8442 16.6668 9.4395V9.16667C16.6668 5.48477 13.6821 2.5 10.0002 2.5Z" fill="#8E8E93" stroke="#8E8E93" stroke-linejoin="round"/>
<path d="M12.7082 9.16683C12.7082 7.67106 11.4956 6.4585 9.99984 6.4585C8.50407 6.4585 7.2915 7.67106 7.2915 9.16683C7.2915 10.6626 8.50407 11.8752 9.99984 11.8752C11.4956 11.8752 12.7082 10.6626 12.7082 9.16683Z" fill="white" stroke="white"/>
</svg>
