<svg width="26" height="26" viewBox="0 0 26 26" fill="none" xmlns="http://www.w3.org/2000/svg">
<path d="M11.6666 6.49984C11.6666 7.23622 12.2635 7.83317 12.9999 7.83317C13.7363 7.83317 14.3333 7.23622 14.3333 6.49984C14.3333 5.76346 13.7363 5.1665 12.9999 5.1665C12.2635 5.1665 11.6666 5.76346 11.6666 6.49984Z" fill="#26282B" stroke="#26282B" stroke-width="0.5"/>
<path d="M11.6666 12.9998C11.6666 13.7362 12.2635 14.3332 12.9999 14.3332C13.7363 14.3332 14.3333 13.7362 14.3333 12.9998C14.3333 12.2635 13.7363 11.6665 12.9999 11.6665C12.2635 11.6665 11.6666 12.2635 11.6666 12.9998Z" fill="#26282B" stroke="#26282B" stroke-width="0.5"/>
<path d="M11.6666 19.4998C11.6666 20.2362 12.2635 20.8332 12.9999 20.8332C13.7363 20.8332 14.3333 20.2362 14.3333 19.4998C14.3333 18.7635 13.7363 18.1665 12.9999 18.1665C12.2635 18.1665 11.6666 18.7635 11.6666 19.4998Z" fill="#26282B" stroke="#26282B" stroke-width="0.5"/>
</svg>
