<svg width="26" height="26" viewBox="0 0 26 26" fill="none" xmlns="http://www.w3.org/2000/svg">
<path d="M11.6668 4.7972C11.6668 5.53358 12.2638 6.13053 13.0002 6.13053C13.7365 6.13053 14.3335 5.53358 14.3335 4.7972C14.3335 4.06082 13.7365 3.46387 13.0002 3.46387C12.2638 3.46387 11.6668 4.06082 11.6668 4.7972Z" fill="#26282B" stroke="#26282B" stroke-width="0.5"/>
<path d="M11.6668 13.4642C11.6668 14.2006 12.2638 14.7975 13.0002 14.7975C13.7365 14.7975 14.3335 14.2006 14.3335 13.4642C14.3335 12.7278 13.7365 12.1309 13.0002 12.1309C12.2638 12.1309 11.6668 12.7278 11.6668 13.4642Z" fill="#26282B" stroke="#26282B" stroke-width="0.5"/>
<path d="M11.6668 22.1312C11.6668 22.8676 12.2638 23.4645 13.0002 23.4645C13.7365 23.4645 14.3335 22.8676 14.3335 22.1312C14.3335 21.3948 13.7365 20.7979 13.0002 20.7979C12.2638 20.7979 11.6668 21.3948 11.6668 22.1312Z" fill="#26282B" stroke="#26282B" stroke-width="0.5"/>
</svg>
