<svg width="28" height="28" viewBox="0 0 28 28" fill="none" xmlns="http://www.w3.org/2000/svg">
<path d="M12.4584 5.16667C12.4584 6.01811 13.1486 6.70833 14.0001 6.70833C14.8515 6.70833 15.5417 6.01811 15.5417 5.16667C15.5417 4.31523 14.8515 3.625 14.0001 3.625C13.1486 3.625 12.4584 4.31523 12.4584 5.16667Z" fill="white" stroke="white" stroke-width="0.75"/>
<path d="M12.4584 14.5007C12.4584 15.3521 13.1486 16.0423 14.0001 16.0423C14.8515 16.0423 15.5417 15.3521 15.5417 14.5007C15.5417 13.6492 14.8515 12.959 14.0001 12.959C13.1486 12.959 12.4584 13.6492 12.4584 14.5007Z" fill="white" stroke="white" stroke-width="0.75"/>
<path d="M12.4584 23.8337C12.4584 24.6851 13.1486 25.3753 14.0001 25.3753C14.8515 25.3753 15.5417 24.6851 15.5417 23.8337C15.5417 22.9822 14.8515 22.292 14.0001 22.292C13.1486 22.292 12.4584 22.9822 12.4584 23.8337Z" fill="white" stroke="white" stroke-width="0.75"/>
</svg>
