<svg width="28" height="28" viewBox="0 0 28 28" fill="none" xmlns="http://www.w3.org/2000/svg">
<path d="M12.4587 5.16667C12.4587 6.01811 13.1489 6.70833 14.0003 6.70833C14.8518 6.70833 15.542 6.01811 15.542 5.16667C15.542 4.31523 14.8518 3.625 14.0003 3.625C13.1489 3.625 12.4587 4.31523 12.4587 5.16667Z" fill="black" stroke="black" stroke-width="0.75"/>
<path d="M12.4587 14.5002C12.4587 15.3516 13.1489 16.0418 14.0003 16.0418C14.8518 16.0418 15.542 15.3516 15.542 14.5002C15.542 13.6487 14.8518 12.9585 14.0003 12.9585C13.1489 12.9585 12.4587 13.6487 12.4587 14.5002Z" fill="black" stroke="black" stroke-width="0.75"/>
<path d="M12.4587 23.8337C12.4587 24.6851 13.1489 25.3753 14.0003 25.3753C14.8518 25.3753 15.542 24.6851 15.542 23.8337C15.542 22.9822 14.8518 22.292 14.0003 22.292C13.1489 22.292 12.4587 22.9822 12.4587 23.8337Z" fill="black" stroke="black" stroke-width="0.75"/>
</svg>
