<svg width="20" height="20" viewBox="0 0 20 20" fill="none" xmlns="http://www.w3.org/2000/svg">
<path d="M5.00002 11.0832C5.59833 11.0832 6.08335 10.5981 6.08335 9.99984C6.08335 9.40153 5.59833 8.9165 5.00002 8.9165C4.40171 8.9165 3.91669 9.40153 3.91669 9.99984C3.91669 10.5981 4.40171 11.0832 5.00002 11.0832Z" fill="#26282B" stroke="#26282B" stroke-width="0.5"/>
<path d="M10 11.0832C10.5983 11.0832 11.0834 10.5981 11.0834 9.99984C11.0834 9.40153 10.5983 8.9165 10 8.9165C9.40171 8.9165 8.91669 9.40153 8.91669 9.99984C8.91669 10.5981 9.40171 11.0832 10 11.0832Z" fill="#26282B" stroke="#26282B" stroke-width="0.5"/>
<path d="M15 11.0832C15.5983 11.0832 16.0834 10.5981 16.0834 9.99984C16.0834 9.40153 15.5983 8.9165 15 8.9165C14.4017 8.9165 13.9167 9.40153 13.9167 9.99984C13.9167 10.5981 14.4017 11.0832 15 11.0832Z" fill="#26282B" stroke="#26282B" stroke-width="0.5"/>
</svg>
