<svg width="28" height="28" viewBox="0 0 28 28" fill="none" xmlns="http://www.w3.org/2000/svg">
<path d="M14.8787 22.311L14.8787 22.3111L11.2638 22.9842L11.1573 23.0496C11.1573 23.0496 11.1573 23.0496 11.1573 23.0496C11.7433 24.0043 12.7972 24.6415 14.0001 24.6415C15.2029 24.6415 16.2568 24.0043 16.8429 23.0496C17.0321 22.7415 16.9884 22.4133 16.808 22.1681C16.6305 21.9267 16.3229 21.7665 15.9787 21.7665C15.5365 21.7665 15.1691 22.0565 14.8787 22.311Z" fill="#363639" stroke="#363639" stroke-width="0.25"/>
<mask id="mask0_1309_13900" style="mask-type:alpha" maskUnits="userSpaceOnUse" x="4" y="2" width="20" height="19">
<path fill-rule="evenodd" clip-rule="evenodd" d="M22.7502 12.6583C22.7502 9.17193 21.0196 5.91288 18.1314 3.96006L16.6141 2.93407C15.035 1.86638 12.9653 1.86638 11.3862 2.93407L9.86884 3.96004C6.98068 5.91288 5.25016 9.17192 5.25016 12.6583V14.8912C4.53412 15.5321 4.0835 16.4634 4.0835 17.5C4.0835 19.433 5.6505 21 7.5835 21H20.4168C22.3499 21 23.9168 19.433 23.9168 17.5C23.9168 16.4634 23.4661 15.5321 22.7502 14.8912V12.6583Z" fill="white"/>
</mask>
<g mask="url(#mask0_1309_13900)">
<path d="M3.30016 12.6583V14.1301C2.5708 15.0565 2.1335 16.228 2.1335 17.5C2.1335 20.51 4.57355 22.95 7.5835 22.95H20.4168C23.4268 22.95 25.8668 20.51 25.8668 17.5C25.8668 16.228 25.4295 15.0565 24.7002 14.1301V12.6583C24.7002 8.52445 22.6483 4.66015 19.2237 2.34465L17.7063 1.31867L17.5943 1.48435L17.7063 1.31867C15.4674 -0.195155 12.5329 -0.195156 10.294 1.31867L10.406 1.48435L10.294 1.31867L8.7766 2.34465L8.88197 2.50049L8.7766 2.34465C5.35205 4.66015 3.30016 8.52445 3.30016 12.6583ZM17.0392 5.57544L17.1512 5.40976L17.0392 5.57545C19.391 7.1656 20.8002 9.8194 20.8002 12.6583V14.8912V15.6735V15.7629L20.8668 15.8225L21.4496 16.3442L21.4497 16.3442C21.7698 16.6307 21.9668 17.041 21.9668 17.5C21.9668 18.356 21.2728 19.05 20.4168 19.05H7.5835C6.72745 19.05 6.0335 18.356 6.0335 17.5C6.0335 17.041 6.23056 16.6307 6.55064 16.3442L6.42126 16.1997L6.55065 16.3442L7.13355 15.8225L7.20016 15.7629V15.6735V14.8912V12.6583C7.20016 9.81939 8.60929 7.1656 10.9611 5.57545L12.4785 4.54946L12.381 4.40528L12.4785 4.54945C13.3977 3.92792 14.6026 3.92792 15.5218 4.54945L17.0392 5.57544Z" fill="#363639" stroke="#363639" stroke-width="0.4"/>
</g>
</svg>
