<svg width="28" height="28" viewBox="0 0 28 28" fill="none" xmlns="http://www.w3.org/2000/svg">
<path d="M14.8787 22.3111L14.8787 22.311C15.1691 22.0565 15.5365 21.7665 15.9787 21.7665C16.3229 21.7665 16.6305 21.9267 16.808 22.1681C16.9884 22.4133 17.0321 22.7415 16.8429 23.0496L16.7364 22.9842L16.8429 23.0496C16.2568 24.0043 15.2029 24.6415 14.0001 24.6415C12.7972 24.6415 11.7433 24.0043 11.1573 23.0496L14.8787 22.3111ZM14.8787 22.3111C14.6441 22.5169 14.3367 22.6415 14.0001 22.6415C13.6634 22.6415 13.3562 22.5169 13.1214 22.3111C12.8311 22.0565 12.4637 21.7665 12.0216 21.7665C11.6774 21.7665 11.3697 21.9267 11.1922 22.1681M14.8787 22.3111L11.1922 22.1681M11.1922 22.1681C11.0119 22.4133 10.9682 22.7415 11.1573 23.0496L11.1922 22.1681Z" fill="#363639" stroke="#363639" stroke-width="0.25"/>
<mask id="mask0_821_12344" style="mask-type:alpha" maskUnits="userSpaceOnUse" x="4" y="2" width="20" height="19">
<path fill-rule="evenodd" clip-rule="evenodd" d="M22.7502 12.6583C22.7502 9.17193 21.0196 5.91288 18.1314 3.96006L16.6141 2.93407C15.035 1.86638 12.9653 1.86638 11.3862 2.93407L9.86884 3.96004C6.98068 5.91288 5.25016 9.17192 5.25016 12.6583V14.8912C4.53412 15.5321 4.0835 16.4634 4.0835 17.5C4.0835 19.433 5.6505 21 7.5835 21H20.4168C22.3499 21 23.9168 19.433 23.9168 17.5C23.9168 16.4634 23.4661 15.5321 22.7502 14.8912V12.6583Z" fill="white"/>
</mask>
<g mask="url(#mask0_821_12344)">
<path d="M7.20016 14.8912V14.6912V12.8583V12.6583C7.20016 9.8194 8.60929 7.16561 10.9611 5.57546C10.9611 5.57545 10.9611 5.57545 10.9611 5.57545L11.1268 5.46342L12.3128 4.66148L12.4785 4.54945C12.4785 4.54945 12.4785 4.54944 12.4785 4.54943C13.3977 3.92792 14.6026 3.92793 15.5218 4.54946L15.6875 4.66148L16.8735 5.46342L17.0392 5.57545C17.0394 5.5756 17.0396 5.57575 17.0399 5.5759C19.3913 7.16611 20.8002 9.81967 20.8002 12.6583V12.8583V14.6912V14.8912V15.0912V15.6735V15.7629L20.8668 15.8225L21.3006 16.2108L21.4496 16.3442L21.4497 16.3442C21.4497 16.3443 21.4497 16.3443 21.4498 16.3443C21.7698 16.6308 21.9668 17.041 21.9668 17.5C21.9668 18.356 21.2728 19.05 20.4168 19.05H20.2168H7.7835H7.5835C6.72745 19.05 6.0335 18.356 6.0335 17.5C6.0335 17.041 6.23053 16.6308 6.55058 16.3443C6.5506 16.3443 6.55063 16.3442 6.55065 16.3442L6.69967 16.2108L7.13355 15.8225L7.20016 15.7629V15.6735V15.0912V14.8912ZM3.30016 14.1301C2.60919 15.0078 2.18034 16.1053 2.13711 17.3H2.1335V17.5V17.7H2.1371C2.23994 20.5509 4.53257 22.8435 7.3835 22.9464V22.95H7.5835H7.7835H20.2168H20.4168H20.6168V22.9464C23.4678 22.8435 25.7604 20.5509 25.8632 17.7H25.8668V17.5V17.3H25.8632C25.82 16.1053 25.3911 15.0077 24.7002 14.1301V12.8583V12.6583V12.4583H24.6986C24.6346 8.46667 22.6594 4.74681 19.3885 2.458L19.3894 2.45668L19.224 2.34483C19.2239 2.34477 19.2238 2.34471 19.2237 2.34465L19.058 2.23262L17.872 1.43069L17.7063 1.31867C17.706 1.31841 17.7056 1.31814 17.7052 1.31788L17.5407 1.20664L17.539 1.20914C15.3789 -0.158645 12.6215 -0.158644 10.4614 1.20913L10.4597 1.20665L10.294 1.31867L10.1283 1.43069L8.94228 2.23262L8.7766 2.34465C8.7761 2.34498 8.7756 2.34532 8.7751 2.34566L8.61092 2.45667L8.61181 2.458C5.3409 4.74681 3.36571 8.46667 3.30176 12.4583H3.30016V12.6583V12.8583V14.1301Z" fill="#363639" stroke="#363639" stroke-width="0.4"/>
</g>
</svg>
