<svg width="26" height="26" viewBox="0 0 26 26" fill="none" xmlns="http://www.w3.org/2000/svg">
<path fill-rule="evenodd" clip-rule="evenodd" d="M11.1629 20.3276C10.5942 20.3276 10.1618 20.8577 10.4593 21.3423C10.9832 22.1958 11.9251 22.7651 13.0001 22.7651C14.075 22.7651 15.0169 22.1958 15.541 21.3423C15.8384 20.8577 15.406 20.3276 14.8373 20.3276C14.4754 20.3276 14.1646 20.566 13.8924 20.8045C13.6542 21.0135 13.3419 21.1401 13.0001 21.1401C12.6582 21.1401 12.346 21.0135 12.1077 20.8045C11.8356 20.566 11.5247 20.3276 11.1629 20.3276Z" fill="#26282B"/>
<mask id="mask0_1472_13939" style="mask-type:alpha" maskUnits="userSpaceOnUse" x="3" y="1" width="20" height="19">
<path fill-rule="evenodd" clip-rule="evenodd" d="M21.1251 11.7542C21.1251 8.51683 19.5182 5.49057 16.8363 3.67723L15.4273 2.72452C13.961 1.7331 12.0392 1.7331 10.5729 2.72452L9.16386 3.67722C6.48199 5.49057 4.87508 8.51682 4.87508 11.7542V13.8276C4.21019 14.4227 3.79175 15.2875 3.79175 16.25C3.79175 18.045 5.24683 19.5 7.04175 19.5H18.9584C20.7534 19.5 22.2084 18.045 22.2084 16.25C22.2084 15.2875 21.7899 14.4227 21.1251 13.8276V11.7542Z" fill="white"/>
</mask>
<g mask="url(#mask0_1472_13939)">
<path d="M5.95882 15.0384L6.50008 14.554V13.8276V11.7542C6.50008 9.05638 7.83917 6.5345 10.0741 5.02339L11.4831 4.07068C12.3995 3.45105 13.6007 3.45105 14.5171 4.07068L15.9261 5.02339C18.161 6.5345 19.5001 9.05638 19.5001 11.7542V13.8276V14.554L20.0413 15.0384C20.3764 15.3383 20.5834 15.7689 20.5834 16.25C20.5834 17.1475 19.8558 17.875 18.9584 17.875H7.04175C6.14428 17.875 5.41675 17.1475 5.41675 16.25C5.41675 15.7689 5.62377 15.3383 5.95882 15.0384ZM22.7501 11.7542C22.7501 7.97726 20.8754 4.44662 17.7465 2.33106L16.3375 1.37836C14.3213 0.0151559 11.6788 0.0151556 9.66267 1.37836L8.25365 2.33106C5.1248 4.44662 3.25008 7.97726 3.25008 11.7542V13.1858C2.57373 14.0222 2.16675 15.0893 2.16675 16.25C2.16675 18.9424 4.34936 21.125 7.04175 21.125H18.9584C21.6508 21.125 23.8334 18.9424 23.8334 16.25C23.8334 15.0893 23.4264 14.0222 22.7501 13.1858V11.7542Z" fill="#26282B"/>
<path d="M5.95882 15.0384L6.50008 14.554V13.8276V11.7542C6.50008 9.05638 7.83917 6.5345 10.0741 5.02339L11.4831 4.07068C12.3995 3.45105 13.6007 3.45105 14.5171 4.07068L15.9261 5.02339C18.161 6.5345 19.5001 9.05638 19.5001 11.7542V13.8276V14.554L20.0413 15.0384C20.3764 15.3383 20.5834 15.7689 20.5834 16.25C20.5834 17.1475 19.8558 17.875 18.9584 17.875H7.04175C6.14428 17.875 5.41675 17.1475 5.41675 16.25C5.41675 15.7689 5.62377 15.3383 5.95882 15.0384ZM22.7501 11.7542C22.7501 7.97726 20.8754 4.44662 17.7465 2.33106L16.3375 1.37836C14.3213 0.0151559 11.6788 0.0151556 9.66267 1.37836L8.25365 2.33106C5.1248 4.44662 3.25008 7.97726 3.25008 11.7542V13.1858C2.57373 14.0222 2.16675 15.0893 2.16675 16.25C2.16675 18.9424 4.34936 21.125 7.04175 21.125H18.9584C21.6508 21.125 23.8334 18.9424 23.8334 16.25C23.8334 15.0893 23.4264 14.0222 22.7501 13.1858V11.7542Z" stroke="#26282B"/>
</g>
</svg>
