<svg width="18" height="18" viewBox="0 0 18 18" fill="none" xmlns="http://www.w3.org/2000/svg">
<path d="M4.3125 10.5008L5.49349 15.2247C5.5267 15.3576 5.54331 15.424 5.56295 15.482C5.75488 16.0486 6.26514 16.447 6.86139 16.4958C6.92243 16.5008 6.9909 16.5008 7.12784 16.5008C7.29933 16.5008 7.38507 16.5008 7.45731 16.4938C8.17125 16.4245 8.73625 15.8595 8.8055 15.1456C8.8125 15.0734 8.8125 14.9876 8.8125 14.8161V4.12579M9 4.12579H6.1875C4.32354 4.12579 2.8125 5.63683 2.8125 7.50079C2.8125 9.36475 4.32354 10.8758 6.1875 10.8758H9C10.3248 10.8758 11.9454 11.586 13.1957 12.2675C13.9251 12.6651 14.2898 12.8639 14.5287 12.8347C14.7502 12.8076 14.9177 12.7081 15.0475 12.5266C15.1875 12.3309 15.1875 11.9393 15.1875 11.1561V3.8455C15.1875 3.06228 15.1875 2.67068 15.0475 2.47496C14.9177 2.29346 14.7502 2.19401 14.5287 2.16688C14.2898 2.13763 13.9251 2.33644 13.1957 2.73405C11.9454 3.41562 10.3248 4.12579 9 4.12579Z" stroke="#72787F" stroke-width="1.25" stroke-linecap="round" stroke-linejoin="round"/>
</svg>
