<svg width="22" height="22" viewBox="0 0 22 22" fill="none" xmlns="http://www.w3.org/2000/svg">
<path d="M13.9793 5.50016C13.9793 7.14552 12.6455 8.47933 11.0002 8.47933C9.35484 8.47933 8.021 7.14552 8.021 5.50016C8.021 3.85481 9.35484 2.521 11.0002 2.521C12.6455 2.521 13.9793 3.85481 13.9793 5.50016Z" fill="white" stroke="white"/>
<path d="M16.7293 15.5833C16.7293 16.5693 16.171 17.5269 15.1378 18.2648C14.106 19.0019 12.6453 19.4792 11.0002 19.4792C9.35502 19.4792 7.89432 19.0019 6.86249 18.2648C5.82935 17.5269 5.271 16.5693 5.271 15.5833C5.271 14.5974 5.82935 13.6398 6.86249 12.9019C7.89432 12.1648 9.35502 11.6875 11.0002 11.6875C12.6453 11.6875 14.106 12.1648 15.1378 12.9019C16.171 13.6398 16.7293 14.5974 16.7293 15.5833Z" fill="white" stroke="white"/>
</svg>
