<svg width="15" height="15" viewBox="0 0 15 15" fill="none" xmlns="http://www.w3.org/2000/svg">
<path d="M9.53125 3.75C9.53125 4.87183 8.62181 5.78125 7.5 5.78125C6.37819 5.78125 5.46875 4.87183 5.46875 3.75C5.46875 2.62817 6.37819 1.71875 7.5 1.71875C8.62181 1.71875 9.53125 2.62817 9.53125 3.75Z" fill="#72787F" stroke="#72787F"/>
<path d="M11.4062 10.625C11.4062 11.2973 11.0256 11.9501 10.3211 12.4532C9.61762 12.9558 8.62169 13.2812 7.5 13.2812C6.37831 13.2812 5.38238 12.9558 4.67886 12.4532C3.97444 11.9501 3.59375 11.2973 3.59375 10.625C3.59375 9.95275 3.97444 9.29987 4.67886 8.79675C5.38238 8.29419 6.37831 7.96875 7.5 7.96875C8.62169 7.96875 9.61762 8.29419 10.3211 8.79675C11.0256 9.29987 11.4062 9.95275 11.4062 10.625Z" fill="#72787F" stroke="#72787F"/>
</svg>
