<svg width="20" height="20" viewBox="0 0 20 20" fill="none" xmlns="http://www.w3.org/2000/svg">
<path d="M12.7084 4.99984C12.7084 6.49561 11.4958 7.70817 10.0001 7.70817C8.50433 7.70817 7.29175 6.49561 7.29175 4.99984C7.29175 3.50406 8.50433 2.2915 10.0001 2.2915C11.4958 2.2915 12.7084 3.50406 12.7084 4.99984Z" fill="#72787F" stroke="#72787F"/>
<path d="M15.2084 14.1667C15.2084 15.063 14.7008 15.9335 13.7616 16.6043C12.8236 17.2744 11.4957 17.7083 10.0001 17.7083C8.5045 17.7083 7.17659 17.2744 6.23856 16.6043C5.29934 15.9335 4.79175 15.063 4.79175 14.1667C4.79175 13.2703 5.29934 12.3998 6.23856 11.729C7.17659 11.0589 8.5045 10.625 10.0001 10.625C11.4957 10.625 12.8236 11.0589 13.7616 11.729C14.7008 12.3998 15.2084 13.2703 15.2084 14.1667Z" fill="#72787F" stroke="#72787F"/>
</svg>
