<svg width="20" height="20" viewBox="0 0 20 20" fill="none" xmlns="http://www.w3.org/2000/svg">
<path d="M12.7082 4.99984C12.7082 6.49561 11.4956 7.70817 9.99984 7.70817C8.50409 7.70817 7.2915 6.49561 7.2915 4.99984C7.2915 3.50406 8.50409 2.2915 9.99984 2.2915C11.4956 2.2915 12.7082 3.50406 12.7082 4.99984Z" fill="#8E8E93" stroke="#8E8E93"/>
<path d="M15.2082 14.1667C15.2082 15.063 14.7006 15.9335 13.7613 16.6043C12.8233 17.2744 11.4954 17.7083 9.99984 17.7083C8.50425 17.7083 7.17635 17.2744 6.23832 16.6043C5.2991 15.9335 4.7915 15.063 4.7915 14.1667C4.7915 13.2703 5.2991 12.3998 6.23832 11.729C7.17635 11.0589 8.50425 10.625 9.99984 10.625C11.4954 10.625 12.8233 11.0589 13.7613 11.729C14.7006 12.3998 15.2082 13.2703 15.2082 14.1667Z" fill="#8E8E93" stroke="#8E8E93"/>
</svg>
