<svg width="24" height="24" viewBox="0 0 24 24" fill="none" xmlns="http://www.w3.org/2000/svg">
<path d="M2.75 11C2.75 6.44365 6.44365 2.75 11 2.75C15.5563 2.75 19.25 6.44365 19.25 11C19.25 15.5563 15.5563 19.25 11 19.25C6.44365 19.25 2.75 15.5563 2.75 11Z" stroke="#363639" stroke-width="1.75"/>
<path d="M18.1794 16.6313L17.5607 16.0126L16.3232 17.25L16.942 17.8687L18.1794 16.6313ZM20.3891 21.3159C20.7308 21.6576 21.2848 21.6576 21.6265 21.3159C21.9682 20.9742 21.9682 20.4201 21.6265 20.0784L20.3891 21.3159ZM16.942 17.8687L20.3891 21.3159L21.6265 20.0784L18.1794 16.6313L16.942 17.8687Z" fill="#363639"/>
</svg>
