<svg width="20" height="20" viewBox="0 0 20 20" fill="none" xmlns="http://www.w3.org/2000/svg">
<path d="M2.29175 9.1665C2.29175 5.36955 5.36979 2.2915 9.16675 2.2915C12.9637 2.2915 16.0417 5.36955 16.0417 9.1665C16.0417 12.9635 12.9637 16.0415 9.16675 16.0415C5.36979 16.0415 2.29175 12.9635 2.29175 9.1665Z" stroke="#454C53" stroke-width="1.5"/>
<path d="M15.1641 13.8447L14.6338 13.3143L13.5731 14.375L14.1035 14.9053L15.1641 13.8447ZM16.9761 17.778C17.269 18.0708 17.7438 18.0708 18.0367 17.778C18.3296 17.4851 18.3296 17.0102 18.0367 16.7173L16.9761 17.778ZM14.1035 14.9053L16.9761 17.778L18.0367 16.7173L15.1641 13.8447L14.1035 14.9053Z" fill="#454C53"/>
</svg>
