<svg width="28" height="28" viewBox="0 0 28 28" fill="none" xmlns="http://www.w3.org/2000/svg">
<path d="M6.99996 16.3333C8.28862 16.3333 9.33329 15.2886 9.33329 14C9.33329 12.7113 8.28862 11.6666 6.99996 11.6666C5.71129 11.6666 4.66663 12.7113 4.66663 14C4.66663 15.2886 5.71129 16.3333 6.99996 16.3333Z" stroke="#26282B" stroke-width="2"/>
<path d="M19.8333 8.16667C21.122 8.16667 22.1667 7.122 22.1667 5.83333C22.1667 4.54467 21.122 3.5 19.8333 3.5C18.5447 3.5 17.5 4.54467 17.5 5.83333C17.5 7.122 18.5447 8.16667 19.8333 8.16667Z" stroke="#26282B" stroke-width="2"/>
<path d="M8.89587 12.3586L17.4691 7.40881" stroke="#26282B" stroke-width="2"/>
<path d="M19.8333 19.8333C21.122 19.8333 22.1667 20.878 22.1667 22.1667C22.1667 23.4553 21.122 24.5 19.8333 24.5C18.5447 24.5 17.5 23.4553 17.5 22.1667C17.5 20.878 18.5447 19.8333 19.8333 19.8333Z" stroke="#26282B" stroke-width="2"/>
<path d="M8.89587 15.9244L17.4691 20.8742" stroke="#26282B" stroke-width="2"/>
</svg>
