<svg width="26" height="26" viewBox="0 0 26 26" fill="none" xmlns="http://www.w3.org/2000/svg">
<path d="M6.49992 15.1663C7.69654 15.1663 8.66658 14.1963 8.66658 12.9997C8.66658 11.8031 7.69654 10.833 6.49992 10.833C5.3033 10.833 4.33325 11.8031 4.33325 12.9997C4.33325 14.1963 5.3033 15.1663 6.49992 15.1663Z" stroke="#26282B" stroke-width="1.75"/>
<path d="M18.4167 7.58333C19.6133 7.58333 20.5833 6.61328 20.5833 5.41667C20.5833 4.22005 19.6133 3.25 18.4167 3.25C17.22 3.25 16.25 4.22005 16.25 5.41667C16.25 6.61328 17.22 7.58333 18.4167 7.58333Z" stroke="#26282B" stroke-width="1.75"/>
<path d="M8.2605 11.4761L16.2214 6.87988" stroke="#26282B" stroke-width="1.75"/>
<path d="M18.4167 18.4167C19.6133 18.4167 20.5833 19.3867 20.5833 20.5833C20.5833 21.78 19.6133 22.75 18.4167 22.75C17.22 22.75 16.25 21.78 16.25 20.5833C16.25 19.3867 17.22 18.4167 18.4167 18.4167Z" stroke="#26282B" stroke-width="1.75"/>
<path d="M8.2605 14.7871L16.2213 19.3833" stroke="#26282B" stroke-width="1.75"/>
</svg>
