<svg width="20" height="20" viewBox="0 0 20 20" fill="none" xmlns="http://www.w3.org/2000/svg">
<rect x="2" y="4" width="15" height="12" rx="2" fill="#8E8E93"/>
<path d="M8.33317 4.5835H10.8332C12.4398 4.5835 13.5191 4.58615 14.3242 4.69439C15.0933 4.79779 15.4224 4.9765 15.6397 5.19369C15.8568 5.41089 16.0355 5.74005 16.1389 6.50915C16.2046 6.99752 16.2314 7.58679 16.2423 8.3335H17.4926C17.4627 6.26719 17.3094 5.09571 16.5235 4.3098C15.5473 3.3335 13.9758 3.3335 10.8332 3.3335H8.33317C5.19047 3.3335 3.61913 3.3335 2.64281 4.3098C1.6665 5.28612 1.6665 6.85746 1.6665 10.0002C1.6665 13.1428 1.6665 14.7142 2.64281 15.6905C3.61913 16.6668 5.19047 16.6668 8.33317 16.6668H10.8332C13.9758 16.6668 15.5473 16.6668 16.5235 15.6905C17.3094 14.9046 17.4627 13.7332 17.4926 11.6668H16.2423C16.2314 12.4135 16.2046 13.0028 16.1389 13.4912C16.0355 14.2602 15.8568 14.5894 15.6397 14.8067C15.4224 15.0238 15.0933 15.2025 14.3242 15.3059C13.5191 15.4142 12.4398 15.4168 10.8332 15.4168H8.33317C6.72649 15.4168 5.64722 15.4142 4.84215 15.3059C4.07305 15.2025 3.7439 15.0238 3.5267 14.8067C3.3095 14.5894 3.1308 14.2602 3.0274 13.4912C2.91916 12.6861 2.9165 11.6068 2.9165 10.0002C2.9165 8.3935 2.91916 7.31421 3.0274 6.50915C3.1308 5.74005 3.3095 5.41089 3.5267 5.19369C3.7439 4.9765 4.07305 4.79779 4.84215 4.69439C5.64722 4.58615 6.72649 4.5835 8.33317 4.5835Z" fill="#8E8E93"/>
<path d="M15.7956 7.5835H15.038C13.6984 7.5835 12.5835 8.64967 12.5835 10.0002C12.5835 11.3507 13.6984 12.4168 15.038 12.4168H15.7956C17.1352 12.4168 18.2502 11.3507 18.2502 10.0002C18.2502 8.64967 17.1352 7.5835 15.7956 7.5835Z" fill="#8E8E93" stroke="#8E8E93" stroke-width="1.5"/>
<path d="M15.7956 8.3335H15.038C14.0966 8.3335 13.3335 9.07969 13.3335 10.0002C13.3335 10.9206 14.0966 11.6668 15.038 11.6668H15.7956C16.737 11.6668 17.5002 10.9206 17.5002 10.0002C17.5002 9.07969 16.737 8.3335 15.7956 8.3335Z" fill="white"/>
<path d="M5.625 7.7085H10.2083" stroke="white" stroke-linecap="round"/>
</svg>
