<svg width="270" height="45" viewBox="0 0 270 45" fill="none" xmlns="http://www.w3.org/2000/svg">
<g clip-path="url(#clip0_853_13857)">
<path d="M22.051 44.102C16.2027 44.102 10.5939 41.7788 6.45859 37.6434C2.32322 33.508 0 27.8993 0 22.051C0 16.2027 2.32322 10.5939 6.45859 6.45858C10.5939 2.32322 16.2027 0 22.051 0C23.3224 0 24.5417 0.50505 25.4406 1.40404C26.3396 2.30303 26.8447 3.52233 26.8447 4.79369C26.8447 6.06506 26.3396 7.28434 25.4406 8.18334C24.5417 9.08233 23.3224 9.58739 22.051 9.58739C18.7454 9.58739 15.5753 10.9005 13.2379 13.2379C10.9005 15.5753 9.58739 18.7454 9.58739 22.051C9.58739 25.3565 10.9005 28.5267 13.2379 30.8641C15.5753 33.2015 18.7454 34.5146 22.051 34.5146C23.3224 34.5146 24.5417 35.0196 25.4406 35.9186C26.3396 36.8176 26.8447 38.0369 26.8447 39.3083C26.8447 40.5797 26.3396 41.7989 25.4406 42.6979C24.5417 43.5969 23.3224 44.102 22.051 44.102Z" fill="white"/>
<path d="M265.206 44.102C263.935 44.102 262.716 43.5969 261.817 42.6979C260.918 41.7989 260.413 40.5797 260.413 39.3083V22.051C260.413 18.7454 259.099 15.5753 256.762 13.2379C254.425 10.9005 251.254 9.58739 247.949 9.58739C244.643 9.58739 241.473 10.9005 239.136 13.2379C236.798 15.5753 235.485 18.7454 235.485 22.051V39.3083C235.485 40.5797 234.98 41.7989 234.081 42.6979C233.182 43.5969 231.963 44.102 230.692 44.102C229.42 44.102 228.201 43.5969 227.302 42.6979C226.403 41.7989 225.898 40.5797 225.898 39.3083V22.051C225.898 16.2027 228.221 10.5939 232.357 6.45858C236.492 2.32322 242.101 0 247.949 0C253.797 0 259.406 2.32322 263.541 6.45858C267.677 10.5939 270 16.2027 270 22.051V39.3083C270 40.5797 269.495 41.7989 268.596 42.6979C267.697 43.5969 266.478 44.102 265.206 44.102Z" fill="white"/>
<path d="M53.4275 44.102C49.0662 44.102 44.8029 42.8087 41.1766 40.3857C37.5503 37.9627 34.724 34.5188 33.055 30.4896C31.386 26.4603 30.9493 22.0265 31.8002 17.7491C32.651 13.4716 34.7512 9.54248 37.8351 6.4586C40.9189 3.37471 44.8481 1.27455 49.1255 0.423712C53.403 -0.42713 57.8367 0.00955835 61.866 1.67855C65.8953 3.34753 69.3392 6.17386 71.7622 9.80013C74.1852 13.4264 75.4785 17.6897 75.4785 22.051C75.4734 27.8977 73.1485 33.5035 69.0143 37.6378C64.88 41.7721 59.2742 44.0969 53.4275 44.102ZM53.4275 9.5874C50.9624 9.5874 48.5527 10.3184 46.5031 11.6879C44.4534 13.0574 42.8559 15.004 41.9126 17.2814C40.9693 19.5588 40.7224 22.0648 41.2033 24.4825C41.6843 26.9002 42.8713 29.121 44.6144 30.8641C46.3574 32.6072 48.5782 33.7942 50.9959 34.2751C53.4136 34.756 55.9197 34.5092 58.1971 33.5659C60.4745 32.6225 62.4211 31.025 63.7906 28.9754C65.1601 26.9258 65.8911 24.5161 65.8911 22.051C65.886 18.747 64.5712 15.5798 62.235 13.2435C59.8987 10.9072 56.7315 9.59247 53.4275 9.5874Z" fill="white"/>
<path d="M199.322 44.102C194.961 44.102 190.697 42.8087 187.071 40.3857C183.445 37.9627 180.619 34.5188 178.95 30.4896C177.281 26.4603 176.844 22.0265 177.695 17.7491C178.546 13.4716 180.646 9.54248 183.73 6.4586C186.813 3.37471 190.743 1.27455 195.02 0.423712C199.298 -0.42713 203.731 0.00955835 207.761 1.67855C211.79 3.34753 215.234 6.17386 217.657 9.80013C220.08 13.4264 221.373 17.6897 221.373 22.051C221.368 27.8977 219.043 33.5035 214.909 37.6378C210.775 41.7721 205.169 44.0969 199.322 44.102ZM199.322 9.5874C196.857 9.5874 194.447 10.3184 192.398 11.6879C190.348 13.0574 188.75 15.004 187.807 17.2814C186.864 19.5588 186.617 22.0648 187.098 24.4825C187.579 26.9002 188.766 29.121 190.509 30.8641C192.252 32.6072 194.473 33.7942 196.89 34.2751C199.308 34.756 201.814 34.5092 204.092 33.5659C206.369 32.6225 208.316 31.025 209.685 28.9754C211.055 26.9258 211.786 24.5161 211.786 22.051C211.782 18.7465 210.468 15.5783 208.131 13.2416C205.795 10.905 202.627 9.59079 199.322 9.5874Z" fill="white"/>
<path d="M102.054 44.102C100.783 44.102 99.5637 43.5969 98.6648 42.6979C97.7658 41.7989 97.2607 40.5797 97.2607 39.3083V13.4223C97.2607 12.4052 96.8567 11.4298 96.1375 10.7106C95.4183 9.99142 94.4429 9.58739 93.4258 9.58739C92.4087 9.58739 91.4332 9.99142 90.714 10.7106C89.9948 11.4298 89.5908 12.4052 89.5908 13.4223V39.3083C89.5908 40.5797 89.0858 41.7989 88.1868 42.6979C87.2878 43.5969 86.0685 44.102 84.7971 44.102C83.5257 44.102 82.3065 43.5969 81.4075 42.6979C80.5085 41.7989 80.0034 40.5797 80.0034 39.3083V13.4223C80.0034 9.86252 81.4176 6.44849 83.9347 3.93131C86.4519 1.41414 89.8659 0 93.4258 0C96.9856 0 100.4 1.41414 102.917 3.93131C105.434 6.44849 106.848 9.86252 106.848 13.4223V39.3083C106.849 39.938 106.726 40.5618 106.485 41.1437C106.244 41.7257 105.891 42.2545 105.446 42.6998C105.001 43.1451 104.472 43.4982 103.89 43.7388C103.308 43.9794 102.684 44.1028 102.054 44.102Z" fill="white"/>
<path d="M119.312 44.102C118.04 44.102 116.821 43.5969 115.922 42.6979C115.023 41.7989 114.518 40.5797 114.518 39.3083V13.4223C114.518 12.4052 114.114 11.4298 113.395 10.7106C112.676 9.99142 111.7 9.58739 110.683 9.58739C109.666 9.58739 108.691 9.99142 107.971 10.7106C107.252 11.4298 106.848 12.4052 106.848 13.4223V39.3083C106.848 40.5797 106.343 41.7989 105.444 42.6979C104.545 43.5969 103.326 44.102 102.054 44.102C100.783 44.102 99.5638 43.5969 98.6648 42.6979C97.7658 41.7989 97.2607 40.5797 97.2607 39.3083V13.4223C97.2607 9.86252 98.6749 6.44849 101.192 3.93131C103.709 1.41414 107.123 0 110.683 0C114.243 0 117.657 1.41414 120.174 3.93131C122.691 6.44849 124.105 9.86252 124.105 13.4223V39.3083C124.106 39.938 123.983 40.5618 123.742 41.1437C123.502 41.7257 123.149 42.2545 122.703 42.6998C122.258 43.1451 121.729 43.4982 121.147 43.7388C120.565 43.9794 119.941 44.1028 119.312 44.102Z" fill="white"/>
<path d="M150.688 44.102C149.417 44.102 148.198 43.5969 147.299 42.6979C146.4 41.7989 145.895 40.5797 145.895 39.3083V13.4223C145.895 12.4052 145.49 11.4298 144.771 10.7106C144.052 9.99142 143.077 9.58739 142.06 9.58739C141.042 9.58739 140.067 9.99142 139.348 10.7106C138.629 11.4298 138.225 12.4052 138.225 13.4223V39.3083C138.225 40.5797 137.72 41.7989 136.821 42.6979C135.922 43.5969 134.702 44.102 133.431 44.102C132.16 44.102 130.94 43.5969 130.041 42.6979C129.142 41.7989 128.637 40.5797 128.637 39.3083V13.4223C128.637 9.86252 130.051 6.44849 132.569 3.93131C135.086 1.41414 138.5 0 142.06 0C145.619 0 149.033 1.41414 151.551 3.93131C154.068 6.44849 155.482 9.86252 155.482 13.4223V39.3083C155.482 40.5797 154.977 41.7989 154.078 42.6979C153.179 43.5969 151.96 44.102 150.688 44.102Z" fill="white"/>
<path d="M167.946 44.102C166.674 44.102 165.455 43.5969 164.556 42.6979C163.657 41.7989 163.152 40.5797 163.152 39.3083V13.4223C163.152 12.4052 162.748 11.4298 162.029 10.7106C161.309 9.99142 160.334 9.58739 159.317 9.58739C158.3 9.58739 157.324 9.99142 156.605 10.7106C155.886 11.4298 155.482 12.4052 155.482 13.4223V39.3083C155.482 40.5797 154.977 41.7989 154.078 42.6979C153.179 43.5969 151.96 44.102 150.688 44.102C149.417 44.102 148.198 43.5969 147.299 42.6979C146.4 41.7989 145.895 40.5797 145.895 39.3083V13.4223C145.895 11.6597 146.242 9.91431 146.916 8.28584C147.591 6.65736 148.579 5.17769 149.826 3.93131C151.072 2.68493 152.552 1.69625 154.18 1.02171C155.809 0.347177 157.554 0 159.317 0C161.08 0 162.825 0.347177 164.453 1.02171C166.082 1.69625 167.562 2.68493 168.808 3.93131C170.054 5.17769 171.043 6.65736 171.718 8.28584C172.392 9.91431 172.739 11.6597 172.739 13.4223V39.3083C172.739 40.5797 172.234 41.7989 171.335 42.6979C170.436 43.5969 169.217 44.102 167.946 44.102Z" fill="white"/>
</g>
<defs>
<clipPath id="clip0_853_13857">
<rect width="270" height="44.102" fill="white"/>
</clipPath>
</defs>
</svg>
