<svg width="274" height="45" viewBox="0 0 274 45" fill="none" xmlns="http://www.w3.org/2000/svg">
<g clip-path="url(#clip0_853_13225)">
<path d="M22.3777 44.7553C16.4427 44.7553 10.7509 42.3977 6.55427 38.2011C2.35764 34.0044 0 28.3126 0 22.3777C0 16.4427 2.35764 10.7509 6.55427 6.55427C10.7509 2.35764 16.4427 0 22.3777 0C23.6679 0 24.9052 0.512532 25.8175 1.42484C26.7299 2.33715 27.2424 3.57451 27.2424 4.86471C27.2424 6.15491 26.7299 7.39226 25.8175 8.30457C24.9052 9.21688 23.6679 9.72942 22.3777 9.72942C19.0231 9.72942 15.806 11.062 13.434 13.434C11.062 15.806 9.72942 19.0231 9.72942 22.3777C9.72942 25.7322 11.062 28.9493 13.434 31.3213C15.806 33.6933 19.0231 35.0259 22.3777 35.0259C23.6679 35.0259 24.9052 35.5384 25.8175 36.4508C26.7299 37.3631 27.2424 38.6004 27.2424 39.8906C27.2424 41.1808 26.7299 42.4182 25.8175 43.3305C24.9052 44.2428 23.6679 44.7553 22.3777 44.7553Z" fill="#FF5F24"/>
<path d="M269.135 44.7553C267.845 44.7553 266.608 44.2428 265.695 43.3305C264.783 42.4182 264.271 41.1808 264.271 39.8906V22.3777C264.271 19.0231 262.938 15.806 260.566 13.434C258.194 11.062 254.977 9.72942 251.622 9.72942C248.268 9.72942 245.051 11.062 242.679 13.434C240.307 15.806 238.974 19.0231 238.974 22.3777V39.8906C238.974 41.1808 238.462 42.4182 237.549 43.3305C236.637 44.2428 235.4 44.7553 234.109 44.7553C232.819 44.7553 231.582 44.2428 230.669 43.3305C229.757 42.4182 229.245 41.1808 229.245 39.8906V22.3777C229.245 16.4427 231.602 10.7509 235.799 6.55427C239.996 2.35764 245.687 0 251.622 0C257.557 0 263.249 2.35764 267.446 6.55427C271.642 10.7509 274 16.4427 274 22.3777V39.8906C274 41.1808 273.487 42.4182 272.575 43.3305C271.663 44.2428 270.425 44.7553 269.135 44.7553Z" fill="#FF5F24"/>
<path d="M54.2185 44.7554C49.7926 44.7554 45.4661 43.4429 41.7861 40.984C38.1061 38.5252 35.2379 35.0302 33.5442 30.9412C31.8505 26.8523 31.4074 22.3529 32.2708 18.012C33.1343 13.6712 35.2655 9.68385 38.3951 6.55428C41.5247 3.4247 45.512 1.29344 49.8528 0.429989C54.1937 -0.433458 58.6931 0.00969995 62.7821 1.70341C66.8711 3.39713 70.366 6.26533 72.8249 9.94531C75.2837 13.6253 76.5962 17.9518 76.5962 22.3777C76.591 28.311 74.2317 33.9999 70.0362 38.1954C65.8407 42.3909 60.1519 44.7502 54.2185 44.7554ZM54.2185 9.72943C51.7169 9.72943 49.2715 10.4712 47.1915 11.8611C45.1115 13.2509 43.4904 15.2262 42.533 17.5374C41.5757 19.8486 41.3252 22.3917 41.8133 24.8452C42.3013 27.2988 43.5059 29.5525 45.2748 31.3213C47.0437 33.0902 49.2974 34.2949 51.7509 34.7829C54.2045 35.2709 56.7476 35.0205 59.0588 34.0631C61.3699 33.1058 63.3453 31.4847 64.7351 29.4047C66.1249 27.3247 66.8668 24.8793 66.8668 22.3777C66.8616 19.0247 65.5274 15.8106 63.1565 13.4397C60.7856 11.0688 57.5714 9.73458 54.2185 9.72943Z" fill="#FF5F24"/>
<path d="M202.275 44.7554C197.849 44.7554 193.523 43.4429 189.843 40.984C186.163 38.5252 183.295 35.0302 181.601 30.9412C179.907 26.8523 179.464 22.3529 180.327 18.012C181.191 13.6712 183.322 9.68385 186.452 6.55428C189.581 3.4247 193.569 1.29344 197.909 0.429989C202.25 -0.433458 206.75 0.00969995 210.839 1.70341C214.928 3.39713 218.423 6.26533 220.882 9.94531C223.34 13.6253 224.653 17.9518 224.653 22.3777C224.648 28.311 222.288 33.9999 218.093 38.1954C213.897 42.3909 208.208 44.7502 202.275 44.7554ZM202.275 9.72943C199.774 9.72943 197.328 10.4712 195.248 11.8611C193.168 13.2509 191.547 15.2262 190.59 17.5374C189.632 19.8486 189.382 22.3917 189.87 24.8452C190.358 27.2988 191.563 29.5525 193.331 31.3213C195.1 33.0902 197.354 34.2949 199.808 34.7829C202.261 35.2709 204.804 35.0205 207.115 34.0631C209.427 33.1058 211.402 31.4847 212.792 29.4047C214.182 27.3247 214.923 24.8793 214.923 22.3777C214.92 19.0242 213.586 15.8091 211.215 13.4378C208.844 11.0665 205.629 9.73287 202.275 9.72943Z" fill="#FF5F24"/>
<path d="M103.566 44.7553C102.276 44.7553 101.039 44.2428 100.126 43.3305C99.214 42.4182 98.7014 41.1808 98.7014 39.8906V13.6212C98.7014 12.589 98.2914 11.5991 97.5616 10.8693C96.8317 10.1394 95.8418 9.72942 94.8097 9.72942C93.7775 9.72942 92.7876 10.1394 92.0578 10.8693C91.3279 11.5991 90.9179 12.589 90.9179 13.6212V39.8906C90.9179 41.1808 90.4054 42.4182 89.4931 43.3305C88.5807 44.2428 87.3434 44.7553 86.0532 44.7553C84.763 44.7553 83.5256 44.2428 82.6133 43.3305C81.701 42.4182 81.1885 41.1808 81.1885 39.8906V13.6212C81.1885 10.0086 82.6236 6.54402 85.178 3.98955C87.7325 1.43509 91.1971 0 94.8097 0C98.4222 0 101.887 1.43509 104.441 3.98955C106.996 6.54402 108.431 10.0086 108.431 13.6212V39.8906C108.432 40.5297 108.306 41.1627 108.062 41.7533C107.818 42.3439 107.46 42.8805 107.008 43.3324C106.556 43.7843 106.019 44.1426 105.429 44.3868C104.838 44.6309 104.205 44.7562 103.566 44.7553Z" fill="#FF5F24"/>
<path d="M121.08 44.7553C119.79 44.7553 118.552 44.2428 117.64 43.3305C116.728 42.4182 116.215 41.1808 116.215 39.8906V13.6212C116.215 12.589 115.805 11.5991 115.075 10.8693C114.345 10.1394 113.356 9.72942 112.323 9.72942C111.291 9.72942 110.301 10.1394 109.571 10.8693C108.842 11.5991 108.432 12.589 108.432 13.6212V39.8906C108.432 41.1808 107.919 42.4182 107.007 43.3305C106.094 44.2428 104.857 44.7553 103.567 44.7553C102.277 44.7553 101.039 44.2428 100.127 43.3305C99.2147 42.4182 98.7021 41.1808 98.7021 39.8906V13.6212C98.7021 10.0086 100.137 6.54402 102.692 3.98955C105.246 1.43509 108.711 0 112.323 0C115.936 0 119.401 1.43509 121.955 3.98955C124.509 6.54402 125.945 10.0086 125.945 13.6212V39.8906C125.945 40.5297 125.82 41.1627 125.576 41.7533C125.332 42.3439 124.973 42.8805 124.522 43.3324C124.07 43.7843 123.533 44.1426 122.942 44.3868C122.352 44.6309 121.719 44.7562 121.08 44.7553Z" fill="#FF5F24"/>
<path d="M152.921 44.7553C151.63 44.7553 150.393 44.2428 149.481 43.3305C148.568 42.4182 148.056 41.1808 148.056 39.8906V13.6212C148.056 12.589 147.646 11.5991 146.916 10.8693C146.186 10.1394 145.196 9.72942 144.164 9.72942C143.132 9.72942 142.142 10.1394 141.412 10.8693C140.682 11.5991 140.272 12.589 140.272 13.6212V39.8906C140.272 41.1808 139.76 42.4182 138.848 43.3305C137.935 44.2428 136.698 44.7553 135.408 44.7553C134.117 44.7553 132.88 44.2428 131.968 43.3305C131.056 42.4182 130.543 41.1808 130.543 39.8906V13.6212C130.543 10.0086 131.978 6.54402 134.533 3.98955C137.087 1.43509 140.552 0 144.164 0C147.777 0 151.241 1.43509 153.796 3.98955C156.35 6.54402 157.785 10.0086 157.785 13.6212V39.8906C157.785 41.1808 157.273 42.4182 156.361 43.3305C155.448 44.2428 154.211 44.7553 152.921 44.7553Z" fill="#FF5F24"/>
<path d="M170.433 44.7553C169.143 44.7553 167.906 44.2428 166.993 43.3305C166.081 42.4182 165.569 41.1808 165.569 39.8906V13.6212C165.569 12.589 165.159 11.5991 164.429 10.8693C163.699 10.1394 162.709 9.72942 161.677 9.72942C160.645 9.72942 159.655 10.1394 158.925 10.8693C158.195 11.5991 157.785 12.589 157.785 13.6212V39.8906C157.785 41.1808 157.273 42.4182 156.36 43.3305C155.448 44.2428 154.211 44.7553 152.92 44.7553C151.63 44.7553 150.393 44.2428 149.481 43.3305C148.568 42.4182 148.056 41.1808 148.056 39.8906V13.6212C148.056 11.8324 148.408 10.0612 149.093 8.40859C149.777 6.75599 150.78 5.2544 152.045 3.98955C153.31 2.72471 154.812 1.72138 156.464 1.03685C158.117 0.35232 159.888 0 161.677 0C163.466 0 165.237 0.35232 166.889 1.03685C168.542 1.72138 170.044 2.72471 171.308 3.98955C172.573 5.2544 173.577 6.75599 174.261 8.40859C174.946 10.0612 175.298 11.8324 175.298 13.6212V39.8906C175.298 41.1808 174.786 42.4182 173.873 43.3305C172.961 44.2428 171.724 44.7553 170.433 44.7553Z" fill="#FF5F24"/>
</g>
<defs>
<clipPath id="clip0_853_13225">
<rect width="274" height="44.7553" fill="white"/>
</clipPath>
</defs>
</svg>
