<svg width="26" height="26" viewBox="0 0 26 26" fill="none" xmlns="http://www.w3.org/2000/svg">
<path fill-rule="evenodd" clip-rule="evenodd" d="M11.1629 20.3278C10.5942 20.3278 10.1618 20.8578 10.4593 21.3424C10.9832 22.196 11.9251 22.7653 13.0001 22.7653C14.075 22.7653 15.0169 22.196 15.541 21.3424C15.8384 20.8578 15.406 20.3278 14.8373 20.3278C14.4754 20.3278 14.1646 20.5661 13.8924 20.8046C13.6542 21.0136 13.3419 21.1403 13.0001 21.1403C12.6582 21.1403 12.346 21.0136 12.1077 20.8046C11.8356 20.5661 11.5247 20.3278 11.1629 20.3278Z" fill="#26282B"/>
<mask id="mask0_1472_14276" style="mask-type:alpha" maskUnits="userSpaceOnUse" x="3" y="1" width="20" height="19">
<path fill-rule="evenodd" clip-rule="evenodd" d="M21.125 11.7542C21.125 8.5168 19.518 5.49054 16.8361 3.6772L15.4272 2.72449C13.9609 1.73307 12.039 1.73307 10.5727 2.72449L9.16373 3.67719C6.48187 5.49054 4.87496 8.51679 4.87496 11.7542V13.8276C4.21006 14.4226 3.79163 15.2875 3.79163 16.25C3.79163 18.045 5.24671 19.5 7.04163 19.5H18.9583C20.7533 19.5 22.2083 18.045 22.2083 16.25C22.2083 15.2875 21.7898 14.4226 21.125 13.8276V11.7542Z" fill="white"/>
</mask>
<g mask="url(#mask0_1472_14276)">
<path d="M5.95869 15.0384L6.49996 14.5539V13.8276V11.7542C6.49996 9.05635 7.83905 6.53447 10.0739 5.02336L11.483 4.07065C12.3994 3.45102 13.6006 3.45102 14.517 4.07065L15.9259 5.02336C18.1609 6.53447 19.5 9.05635 19.5 11.7542V13.8276V14.5539L20.0412 15.0384C20.3763 15.3383 20.5833 15.7689 20.5833 16.25C20.5833 17.1474 19.8557 17.875 18.9583 17.875H7.04163C6.14416 17.875 5.41663 17.1474 5.41663 16.25C5.41663 15.7689 5.62365 15.3383 5.95869 15.0384ZM22.75 11.7542C22.75 7.97723 20.8753 4.44659 17.7464 2.33102L16.3374 1.37833C14.3212 0.0151254 11.6787 0.0151251 9.66255 1.37833L8.25353 2.33102C5.12468 4.44659 3.24996 7.97723 3.24996 11.7542V13.1858C2.57361 14.0222 2.16663 15.0893 2.16663 16.25C2.16663 18.9424 4.34924 21.125 7.04163 21.125H18.9583C21.6507 21.125 23.8333 18.9424 23.8333 16.25C23.8333 15.0893 23.4263 14.0222 22.75 13.1858V11.7542Z" fill="#26282B"/>
<path d="M5.95869 15.0384L6.49996 14.5539V13.8276V11.7542C6.49996 9.05635 7.83905 6.53447 10.0739 5.02336L11.483 4.07065C12.3994 3.45102 13.6006 3.45102 14.517 4.07065L15.9259 5.02336C18.1609 6.53447 19.5 9.05635 19.5 11.7542V13.8276V14.5539L20.0412 15.0384C20.3763 15.3383 20.5833 15.7689 20.5833 16.25C20.5833 17.1474 19.8557 17.875 18.9583 17.875H7.04163C6.14416 17.875 5.41663 17.1474 5.41663 16.25C5.41663 15.7689 5.62365 15.3383 5.95869 15.0384ZM22.75 11.7542C22.75 7.97723 20.8753 4.44659 17.7464 2.33102L16.3374 1.37833C14.3212 0.0151254 11.6787 0.0151251 9.66255 1.37833L8.25353 2.33102C5.12468 4.44659 3.24996 7.97723 3.24996 11.7542V13.1858C2.57361 14.0222 2.16663 15.0893 2.16663 16.25C2.16663 18.9424 4.34924 21.125 7.04163 21.125H18.9583C21.6507 21.125 23.8333 18.9424 23.8333 16.25C23.8333 15.0893 23.4263 14.0222 22.75 13.1858V11.7542Z" stroke="#26282B"/>
</g>
</svg>
