<svg width="32" height="32" viewBox="0 0 32 32" fill="none" xmlns="http://www.w3.org/2000/svg">
<path fill-rule="evenodd" clip-rule="evenodd" d="M3 18.2269C3 10.9066 3.83268 11.4175 8.31472 7.433C10.2757 5.9198 13.327 3 15.962 3C18.5957 3 21.708 5.9055 23.6866 7.433C28.1686 11.4175 29 10.9066 29 18.2269C29 29 26.3433 29 16 29C5.65669 29 3 29 3 18.2269Z" fill="#FAF8F7" fill-opacity="0.5"/>
<path fill-rule="evenodd" clip-rule="evenodd" d="M3 18.2269C3 10.9066 3.83268 11.4175 8.31472 7.433C10.2757 5.9198 13.327 3 15.962 3C18.5957 3 21.708 5.9055 23.6866 7.433C28.1686 11.4175 29 10.9066 29 18.2269C29 29 26.3433 29 16 29C5.65669 29 3 29 3 18.2269Z" fill="#FF5F24" fill-opacity="0.05"/>
<path fill-rule="evenodd" clip-rule="evenodd" d="M3 18.2269C3 10.9066 3.83268 11.4175 8.31472 7.433C10.2757 5.9198 13.327 3 15.962 3C18.5957 3 21.708 5.9055 23.6866 7.433C28.1686 11.4175 29 10.9066 29 18.2269C29 29 26.3433 29 16 29C5.65669 29 3 29 3 18.2269Z" stroke="#FF5F24" stroke-width="2" stroke-linecap="round" stroke-linejoin="round"/>
<path d="M13 22H19" stroke="#FF5F24" stroke-width="2" stroke-linecap="round"/>
</svg>
