<svg width="32" height="32" viewBox="0 0 32 32" fill="none" xmlns="http://www.w3.org/2000/svg">
<path d="M28 15C28 21.0751 22.6274 26 16 26C14.2132 26 12.5176 25.642 10.9939 25C10.0976 24.6224 6.26086 26.5591 5.5 26C4.75554 25.453 7.08375 22.4136 6.5 21.7214C4.9326 19.8626 4 17.5311 4 15C4 8.92487 9.37258 4 16 4C22.6274 4 28 8.92487 28 15Z" fill="#FAF8F7" fill-opacity="0.5"/>
<path d="M28 15C28 21.0751 22.6274 26 16 26C14.2132 26 12.5176 25.642 10.9939 25C10.0976 24.6224 6.26086 26.5591 5.5 26C4.75554 25.453 7.08375 22.4136 6.5 21.7214C4.9326 19.8626 4 17.5311 4 15C4 8.92487 9.37258 4 16 4C22.6274 4 28 8.92487 28 15Z" fill="#FF5F24" fill-opacity="0.05"/>
<path fill-rule="evenodd" clip-rule="evenodd" d="M14.8669 5.2002C9.52812 5.2002 5.2002 9.52812 5.2002 14.8669C5.2002 17.2178 6.03818 19.3705 7.43282 21.0462C7.65084 21.3082 7.72042 21.6631 7.61745 21.9881L6.63286 25.0945L10.6376 23.8329C10.8567 23.7638 11.093 23.7723 11.3065 23.857C12.407 24.2933 13.6077 24.5335 14.8669 24.5335H17.5335C22.8723 24.5335 27.2002 20.2057 27.2002 14.8669C27.2002 9.52812 22.8723 5.2002 17.5335 5.2002H14.8669ZM3.2002 14.8669C3.2002 8.42354 8.42354 3.2002 14.8669 3.2002H17.5335C23.9769 3.2002 29.2002 8.42354 29.2002 14.8669C29.2002 21.3102 23.9769 26.5335 17.5335 26.5335H14.8669C13.4788 26.5335 12.1455 26.2907 10.9083 25.8445L6.62214 27.1947C5.33506 27.6002 4.12486 26.3879 4.53257 25.1015L5.5504 21.8903C4.07548 19.9366 3.2002 17.5029 3.2002 14.8669Z" fill="#FF5F24"/>
</svg>
