<svg width="26" height="26" viewBox="0 0 26 26" fill="none" xmlns="http://www.w3.org/2000/svg">
<path d="M2.97913 11.917C2.97913 6.98095 6.98058 2.97949 11.9166 2.97949C16.8527 2.97949 20.8541 6.98095 20.8541 11.917C20.8541 16.853 16.8527 20.8545 11.9166 20.8545C6.98058 20.8545 2.97913 16.853 2.97913 11.917Z" stroke="#26282B" stroke-width="1.75"/>
<path d="M19.6428 18.0688L19.024 17.4501L17.7866 18.6875L18.4053 19.3062L19.6428 18.0688ZM22.1397 23.0406C22.4814 23.3823 23.0355 23.3823 23.3772 23.0406C23.7189 22.6989 23.7189 22.1449 23.3772 21.8032L22.1397 23.0406ZM18.4053 19.3062L22.1397 23.0406L23.3772 21.8032L19.6428 18.0688L18.4053 19.3062Z" fill="#26282B"/>
</svg>
